<svg width="142" height="196" viewBox="0 0 142 196" fill="none" xmlns="http://www.w3.org/2000/svg">
<path d="M80.36 0.890015C82.1123 1.71542 83.6563 2.67854 85.2365 3.79673C85.7146 4.1308 86.1927 4.46487 86.6853 4.80906C87.6816 5.50922 88.6765 6.21151 89.6697 6.91597C93.4481 9.54774 96.041 10.9867 100.725 10.5791C102.56 10.6773 102.56 10.6773 104.345 11.42C106.506 13.9929 107.813 17.188 109.105 20.2621C109.644 21.5165 109.644 21.5165 110.78 23.12C111.383 22.9511 111.987 22.7822 112.608 22.6081C114.875 22.535 114.875 22.535 115.928 23.2777C116.792 24.1581 117.593 25.099 118.385 26.045C118.771 24.3076 119.157 22.5701 119.555 20.78C121.907 22.8968 123.539 25.3916 125.259 28.0194C125.555 28.4538 125.851 28.8881 126.157 29.3356C128.341 32.6676 128.341 32.6676 128.28 34.9114C128.164 36.5455 128.164 36.5455 129.029 37.4654C130.051 38.4204 131.107 39.2936 132.206 40.1581C132.567 40.4575 132.928 40.7569 133.3 41.0654C135.017 42.4712 136.488 43.5796 138.508 44.5411C140.307 46.1883 140.313 46.6784 140.54 49.0337C140.585 50.3402 140.609 51.6477 140.615 52.955C140.632 54.0245 140.632 54.0245 140.65 55.1156C140.672 57.3698 140.666 59.6221 140.652 61.8763C140.649 62.6616 140.646 63.4469 140.644 64.2323C140.637 66.1282 140.627 68.0241 140.615 69.92C138.491 69.92 136.368 69.92 134.18 69.92C134.18 73.0088 134.18 76.0976 134.18 79.28C132.829 79.28 131.477 79.28 130.085 79.28C130.085 83.7202 130.085 88.1603 130.085 92.735C129.313 92.735 128.541 92.735 127.745 92.735C127.745 98.7196 127.745 104.704 127.745 110.87C128.324 111.063 128.903 111.256 129.5 111.455C131.391 114.229 130.979 117.614 130.67 120.815C129.211 126.932 123.903 132.657 119.848 137.305C117.752 139.831 117.208 141.932 117.007 145.182C116.63 146.555 116.63 146.555 115.46 147.611C113.099 148.551 111.063 148.502 108.55 148.42C108.089 148.412 107.627 148.404 107.152 148.396C106.021 148.375 104.891 148.344 103.76 148.31C104.172 145.688 104.754 143.242 105.515 140.705C105.25 141.176 104.984 141.646 104.711 142.131C103.175 144.42 101.186 146.09 99.1189 147.892C97.7407 149.097 96.4033 150.339 95.0741 151.598C94.6849 151.967 94.2956 152.335 93.8946 152.715C93.1211 153.449 92.3493 154.184 91.5794 154.922C91.2207 155.261 90.862 155.6 90.4924 155.949C90.1742 156.253 89.8561 156.556 89.5283 156.869C88.4814 157.726 87.4382 158.281 86.21 158.84C86.2779 159.257 86.3457 159.674 86.4157 160.104C86.5896 161.949 86.5842 163.456 86.21 165.275C84.3378 167.518 81.5761 168.713 79.0392 170.083C71.9051 173.677 71.9051 173.677 67.4302 179.927C66.7488 182.274 66.32 184.476 66.32 186.92C66.7215 186.669 67.1229 186.418 67.5366 186.159C69.3462 185.031 71.1602 183.909 72.9744 182.788C73.6063 182.393 74.2383 181.997 74.8893 181.59C75.4926 181.219 76.0959 180.847 76.7175 180.464C77.275 180.118 77.8326 179.772 78.4071 179.415C78.8585 179.189 79.3099 178.963 79.775 178.73C80.1611 178.923 80.5472 179.116 80.945 179.315C76.7962 182.442 72.5324 185.329 68.1537 188.122C65.9613 189.52 63.821 190.953 61.7131 192.478C55.7581 196.38 50.1673 195.687 43.505 194.525C44.675 192.965 45.845 191.405 47.015 189.845C47.2827 189.408 47.5504 188.97 47.8262 188.52C48.77 187.505 48.77 187.505 50.3422 187.359C50.7886 187.407 51.235 187.455 51.695 187.505C50.5032 186.927 49.3082 186.355 48.1119 185.787C47.4468 185.468 46.7816 185.149 46.0964 184.82C43.1878 183.624 40.5578 183.331 37.4356 183.374C36.9243 183.379 36.4131 183.384 35.8863 183.389C35.5047 183.396 35.1231 183.403 34.73 183.41C35.0075 184.098 35.285 184.786 35.5709 185.494C36.4195 187.74 36.8218 189.803 37.07 192.185C32.4808 191.529 29.0334 190.494 25.955 186.92C24.7021 184.567 23.802 182.107 22.8837 179.608C20.6226 173.736 18.1521 168.102 15.2005 162.544C12.4182 157.226 11.0763 151.879 10.16 145.97C10.0132 145.032 10.0132 145.032 9.86335 144.076C8.73841 136.306 8.28114 128.473 7.79143 120.643C7.75793 120.117 7.72443 119.591 7.68991 119.049C7.62694 118.049 7.56658 117.049 7.50912 116.049C7.56882 113.863 7.56882 113.863 6.64999 112.04C6.33486 110.493 6.04386 108.951 5.77249 107.397C5.32512 104.367 5.32512 104.367 4.30999 101.51C4.25434 100.332 4.23284 99.1521 4.22773 97.9726C4.2885 87.6668 4.2885 87.6668 1.41927 77.8929C0.547216 75.7273 0.30883 73.9999 1.24431 71.8003C1.83915 70.6817 2.47421 69.6087 3.13999 68.5307C3.91219 67.2517 4.68439 65.9727 5.47999 64.655C11.6576 64.655 17.8352 64.655 24.2 64.655C24.2 59.0566 24.2 53.4581 24.2 47.69C30.5706 47.69 36.9413 47.69 43.505 47.69C43.505 55.0259 43.505 62.3618 43.505 69.92C50.8409 69.92 58.1768 69.92 65.735 69.92C65.735 63.7424 65.735 57.5648 65.735 51.2C72.8779 51.2 80.0207 51.2 87.38 51.2C87.38 53.5166 87.38 55.8332 87.38 58.22C92.5924 58.22 97.8047 58.22 103.175 58.22C103.175 56.8687 103.175 55.5173 103.175 54.125C107.036 54.125 110.897 54.125 114.875 54.125C114.875 49.4918 114.875 44.8586 114.875 40.085C109.47 40.085 104.064 40.085 98.495 40.085C98.495 42.4016 98.495 44.7182 98.495 47.105C92.8966 47.105 87.2981 47.105 81.53 47.105C81.53 42.2788 81.53 37.4525 81.53 32.48C76.7038 32.48 71.8775 32.48 66.905 32.48C66.905 35.9549 66.905 39.4298 66.905 43.01C54.1637 43.01 41.4224 43.01 28.295 43.01C28.1683 37.8882 28.1683 37.8882 28.0391 32.6628C28.0018 31.59 27.9645 30.5171 27.9261 29.4118C27.9141 28.5554 27.9037 27.699 27.8951 26.8425C27.8741 26.4028 27.8532 25.963 27.8316 25.5099C27.8301 24.2153 27.8301 24.2153 28.295 21.95C29.2675 21.0286 30.2132 20.4078 31.394 19.7785C32.7314 18.9015 32.7314 18.9015 33.56 16.1C36.0696 16.1 38.5793 16.1 41.165 16.1C41.4908 14.8331 41.4908 14.8331 41.8231 13.5406C42.6764 10.9646 42.6764 10.9646 44.6384 9.92095C46.43 9.66502 46.43 9.66502 48.77 9.66502C49.3491 7.73452 49.9283 5.80402 50.525 3.81502C56.3094 3.56821 61.6518 4.51108 67.3072 5.57002C68.236 5.73963 69.1649 5.90874 70.0939 6.07732C72.3471 6.48732 74.5988 6.90422 76.85 7.32502C77.0174 6.88236 77.1848 6.4397 77.3573 5.98363C78.1414 4.11 79.2004 2.55213 80.36 0.890015Z" fill="#96979A"/>
<path d="M80.36 0.890015C82.1123 1.71542 83.6563 2.67854 85.2365 3.79673C85.7146 4.1308 86.1927 4.46487 86.6853 4.80906C87.6816 5.50921 88.6765 6.21151 89.6697 6.91597C93.4481 9.54774 96.041 10.9867 100.725 10.5791C102.56 10.6773 102.56 10.6773 104.345 11.42C106.506 13.9929 107.813 17.188 109.105 20.2621C109.644 21.5165 109.644 21.5165 110.78 23.12C111.383 22.9511 111.987 22.7822 112.608 22.6081C114.875 22.535 114.875 22.535 115.928 23.2777C116.792 24.1581 117.593 25.099 118.385 26.045C118.771 24.3076 119.157 22.5701 119.555 20.78C121.907 22.8968 123.539 25.3916 125.259 28.0194C125.555 28.4538 125.851 28.8881 126.157 29.3356C128.341 32.6676 128.341 32.6676 128.28 34.9114C128.164 36.5455 128.164 36.5455 129.029 37.4654C130.051 38.4203 131.107 39.2935 132.206 40.1581C132.567 40.4575 132.928 40.7569 133.3 41.0653C135.017 42.4712 136.488 43.5796 138.508 44.5411C140.307 46.1883 140.313 46.6784 140.54 49.0337C140.585 50.3402 140.609 51.6477 140.615 52.955C140.632 54.0245 140.632 54.0245 140.65 55.1156C140.672 57.3698 140.666 59.6221 140.652 61.8763C140.649 62.6616 140.646 63.4469 140.644 64.2323C140.637 66.1282 140.627 68.0241 140.615 69.92C138.491 69.92 136.368 69.92 134.18 69.92C134.18 73.0088 134.18 76.0976 134.18 79.28C132.829 79.28 131.477 79.28 130.085 79.28C130.085 83.7202 130.085 88.1603 130.085 92.735C129.313 92.735 128.541 92.735 127.745 92.735C127.745 98.7196 127.745 104.704 127.745 110.87C128.324 111.063 128.903 111.256 129.5 111.455C131.391 114.229 130.979 117.614 130.67 120.815C129.211 126.932 123.903 132.657 119.848 137.305C117.752 139.831 117.208 141.932 117.007 145.182C116.63 146.555 116.63 146.555 115.46 147.611C113.099 148.551 111.063 148.502 108.55 148.42C108.089 148.412 107.627 148.404 107.152 148.396C106.021 148.375 104.891 148.344 103.76 148.31C104.003 146.568 104.249 145.025 104.945 143.403C106.623 138.905 105.358 133.312 104.711 128.676C104.637 128.112 104.563 127.549 104.487 126.968C104.136 124.369 103.732 121.836 103.12 119.286C102.204 114.871 102.467 110.312 102.517 105.824C102.523 104.893 102.528 103.961 102.533 103.03C102.546 100.768 102.566 98.5066 102.59 96.245C105.1 96.245 107.609 96.245 110.195 96.245C110.388 100.878 110.581 105.511 110.78 110.285C112.711 110.478 114.641 110.671 116.63 110.87C116.63 105.851 116.63 100.831 116.63 95.66C114.7 95.66 112.769 95.66 110.78 95.66C110.78 94.6948 110.78 93.7295 110.78 92.735C110.436 92.7454 110.091 92.7558 109.736 92.7665C106.101 92.8713 102.466 92.9411 98.8294 92.9921C97.4785 93.0154 96.1277 93.0472 94.7772 93.0881C86.3456 93.3368 79.9972 92.9276 72.6532 88.6222C64.5053 84.2963 54.3342 84.4911 45.358 83.9525C44.8647 83.9215 44.3714 83.8906 43.8631 83.8587C42.9252 83.801 41.9869 83.7481 41.0484 83.7005C38.8702 83.5674 37.7547 83.4415 35.9 82.205C45.7455 82.205 55.5911 82.205 65.735 82.205C65.735 71.9734 65.735 61.7417 65.735 51.2C72.8779 51.2 80.0207 51.2 87.38 51.2C87.38 53.5166 87.38 55.8332 87.38 58.22C92.5924 58.22 97.8047 58.22 103.175 58.22C103.175 56.8687 103.175 55.5173 103.175 54.125C107.036 54.125 110.897 54.125 114.875 54.125C114.875 49.4918 114.875 44.8586 114.875 40.085C109.47 40.085 104.064 40.085 98.495 40.085C98.495 42.4016 98.495 44.7182 98.495 47.105C92.8966 47.105 87.2981 47.105 81.53 47.105C81.53 42.2788 81.53 37.4525 81.53 32.48C76.7038 32.48 71.8775 32.48 66.905 32.48C66.905 35.9549 66.905 39.4298 66.905 43.01C54.1637 43.01 41.4224 43.01 28.295 43.01C28.2105 39.5954 28.1261 36.1809 28.0391 32.6628C28.0018 31.59 27.9645 30.5171 27.9261 29.4118C27.9141 28.5554 27.9037 27.699 27.8951 26.8425C27.8741 26.4028 27.8532 25.963 27.8316 25.5099C27.8301 24.2153 27.8301 24.2153 28.295 21.95C29.2675 21.0286 30.2132 20.4078 31.394 19.7785C32.7314 18.9015 32.7314 18.9015 33.56 16.1C36.0696 16.1 38.5793 16.1 41.165 16.1C41.3822 15.2554 41.5994 14.4108 41.8231 13.5406C42.6764 10.9646 42.6764 10.9646 44.6384 9.92095C46.43 9.66502 46.43 9.66502 48.77 9.66502C49.3491 7.73452 49.9283 5.80402 50.525 3.81501C56.3094 3.56821 61.6518 4.51108 67.3072 5.57001C68.236 5.73963 69.1649 5.90874 70.0939 6.07732C72.3471 6.48732 74.5989 6.90422 76.85 7.32502C77.0174 6.88236 77.1848 6.4397 77.3573 5.98363C78.1414 4.11 79.2004 2.55213 80.36 0.890015Z" fill="#D1D2D4"/>
<path d="M80.36 0.890015C82.1123 1.71542 83.6563 2.67854 85.2365 3.79673C85.7146 4.1308 86.1927 4.46487 86.6853 4.80906C87.6816 5.50921 88.6764 6.21151 89.6697 6.91597C93.4481 9.54774 96.041 10.9867 100.725 10.5791C102.56 10.6773 102.56 10.6773 104.345 11.42C106.506 13.9929 107.813 17.188 109.105 20.2621C109.644 21.5165 109.644 21.5165 110.78 23.12C111.383 22.9511 111.987 22.7822 112.608 22.6081C114.875 22.535 114.875 22.535 115.928 23.2777C116.792 24.1581 117.593 25.099 118.385 26.045C118.771 25.4659 119.157 24.8867 119.555 24.29C119.555 29.5024 119.555 34.7147 119.555 40.085C112.605 40.085 105.655 40.085 98.495 40.085C98.495 42.4016 98.495 44.7182 98.495 47.105C92.8965 47.105 87.2981 47.105 81.53 47.105C81.53 42.2788 81.53 37.4525 81.53 32.48C76.7037 32.48 71.8775 32.48 66.905 32.48C66.905 35.9549 66.905 39.4298 66.905 43.01C54.1637 43.01 41.4224 43.01 28.295 43.01C28.2105 39.5954 28.1261 36.1809 28.0391 32.6628C28.0018 31.59 27.9645 30.5171 27.9261 29.4118C27.9141 28.5554 27.9037 27.699 27.8951 26.8425C27.8741 26.4028 27.8532 25.963 27.8316 25.5099C27.8301 24.2153 27.8301 24.2153 28.295 21.95C29.2675 21.0286 30.2132 20.4078 31.394 19.7785C32.7314 18.9015 32.7314 18.9015 33.56 16.1C36.0696 16.1 38.5793 16.1 41.165 16.1C41.3822 15.2554 41.5994 14.4108 41.8231 13.5406C42.6764 10.9646 42.6764 10.9646 44.6384 9.92095C46.43 9.66501 46.43 9.66501 48.77 9.66501C49.3491 7.73451 49.9283 5.80401 50.525 3.81501C56.3094 3.56821 61.6518 4.51108 67.3072 5.57001C68.236 5.73963 69.1649 5.90874 70.0939 6.07732C72.3471 6.48732 74.5988 6.90422 76.85 7.32501C77.0174 6.88236 77.1848 6.4397 77.3573 5.98363C78.1414 4.11 79.2004 2.55212 80.36 0.890015Z" fill="#9FA1A3"/>
<path d="M17.18 103.265C21.8515 103.525 25.4619 106.413 28.88 109.298C29.2736 109.623 29.6673 109.949 30.0728 110.284C30.8562 110.933 31.6363 111.587 32.4131 112.244C33.1822 112.892 33.9584 113.531 34.7411 114.162C35.11 114.464 35.4788 114.766 35.8589 115.077C36.1891 115.343 36.5193 115.609 36.8595 115.883C38.166 117.258 38.3584 119.015 38.825 120.815C40.272 122.238 40.272 122.238 41.75 123.155C41.1328 125.078 40.5407 125.518 38.7564 126.558C38.027 126.905 37.2941 127.246 36.5581 127.579C33.7043 128.885 33.7043 128.885 31.0806 130.593C30.05 131.345 30.05 131.345 28.1122 131.345C26.1043 130.801 25.5446 130.516 24.0537 129.261C21.3882 127.138 18.7014 127.633 15.425 127.835C13.9771 130.441 13.9771 130.441 12.5 133.1C13.7303 134.904 14.9613 136.708 16.1928 138.511C16.5408 139.022 16.8888 139.532 17.2474 140.058C17.5849 140.552 17.9223 141.046 18.27 141.555C18.5794 142.008 18.8889 142.462 19.2076 142.929C20.0846 144.221 20.0846 144.221 21.0705 145.393C21.9603 146.703 22.1421 147.523 22.2873 149.087C22.3345 149.555 22.3816 150.022 22.4301 150.504C22.4712 150.986 22.5123 151.469 22.5547 151.966C22.6265 152.704 22.6265 152.704 22.6998 153.456C22.8166 154.665 22.9242 155.875 23.03 157.085C23.481 156.747 23.9319 156.409 24.3965 156.061C24.9832 155.627 25.5699 155.193 26.1744 154.745C26.758 154.311 27.3417 153.876 27.9431 153.429C29.465 152.405 29.465 152.405 30.635 152.405C30.5867 151.693 30.5385 150.981 30.4887 150.248C30.4953 148.39 30.6058 147.774 31.5856 146.116C33.1109 144.671 34.6963 143.558 36.485 142.46C36.1826 142.17 35.8802 141.879 35.5686 141.58C32.4094 138.322 32.4094 138.322 32.3169 135.733C33.0503 133.451 33.833 131.228 34.73 129.005C35.2805 128.997 35.831 128.988 36.3982 128.98C37.4909 128.938 37.4909 128.938 38.6056 128.895C39.325 128.875 40.0444 128.855 40.7857 128.834C43.4935 128.309 44.4719 127.384 46.43 125.495C46.7452 132.66 46.559 138.882 44.202 145.696C43.6302 147.36 43.2096 148.919 42.92 150.65C39.393 150.35 35.8883 150.024 32.39 149.48C32.1004 150.638 32.1004 150.638 31.805 151.82C32.7099 151.711 32.7099 151.711 33.6331 151.601C36.2723 151.856 36.9453 152.357 38.6927 154.212C40.0254 156.29 39.7766 158.429 39.6294 160.814C39.5208 163.312 39.5208 163.312 39.41 165.86C34.9698 166.053 30.5297 166.246 25.955 166.445C28.0682 170.22 28.0682 170.22 30.8909 173.026C31.5413 173.592 31.5413 173.592 32.2049 174.169C37.9152 178.598 44.0929 178.703 51.0803 177.962C54.1208 177.453 55.7581 176.686 58.13 174.635C57.4674 174.627 57.4674 174.627 56.7915 174.618C54.751 174.587 52.7113 174.538 50.6712 174.489C49.9767 174.48 49.2822 174.472 48.5666 174.464C43.414 174.323 37.2952 173.929 33.4137 170.101C33.0759 169.667 32.7381 169.233 32.39 168.785C33.1019 169.05 33.8137 169.316 34.5472 169.589C41.9699 172.022 49.8108 172.017 57.545 172.295C55.4214 170.944 53.2979 169.592 51.11 168.2C55.0942 160.051 55.0942 160.051 56.96 157.67C57.5391 157.477 58.1183 157.284 58.715 157.085C59.3225 155.235 59.3225 155.235 59.3 152.99C58.3185 151.426 57.1232 150.166 55.79 148.895C55.983 148.509 56.1761 148.123 56.375 147.725C58.1239 149.328 59.4388 150.756 60.5797 152.844C61.4217 154.773 61.4217 154.773 62.81 155.33C62.6169 152.627 62.4239 149.925 62.225 147.14C65.4071 148.8 68.4736 150.509 71.4799 152.467C71.9728 152.787 72.4658 153.107 72.9736 153.436C73.9674 154.085 74.957 154.741 75.9424 155.403C76.404 155.704 76.8657 156.005 77.3413 156.315C77.7537 156.59 78.1662 156.865 78.5911 157.148C80.0985 157.813 80.5837 157.652 82.115 157.085C83.3113 156.142 83.3113 156.142 84.475 154.924C85.1599 154.239 85.1599 154.239 85.8586 153.54C86.3456 153.044 86.8326 152.548 87.3343 152.037C87.8374 151.532 88.3405 151.026 88.8588 150.505C90.4663 148.888 92.0675 147.264 93.6687 145.641C94.7568 144.544 95.8453 143.448 96.9342 142.351C99.6041 139.662 102.269 136.968 104.93 134.27C106.1 135.44 106.1 135.44 106.392 137.561C106.301 140.739 104.675 142.543 102.59 144.8C101.879 145.448 101.156 146.083 100.424 146.706C97.4722 149.254 94.664 151.945 91.8543 154.648C91.4607 155.022 91.067 155.395 90.6615 155.78C90.1363 156.283 90.1363 156.283 89.6006 156.797C88.5244 157.691 87.4825 158.268 86.21 158.84C86.2779 159.257 86.3457 159.674 86.4157 160.104C86.5895 161.949 86.5842 163.456 86.21 165.275C84.3378 167.518 81.5761 168.713 79.0392 170.083C71.905 173.677 71.905 173.677 67.4301 179.927C66.7488 182.274 66.32 184.476 66.32 186.92C66.7215 186.669 67.1229 186.418 67.5366 186.159C69.3462 185.031 71.1602 183.909 72.9744 182.788C73.9223 182.195 73.9223 182.195 74.8893 181.59C75.4926 181.218 76.0959 180.847 76.7175 180.464C77.275 180.118 77.8326 179.772 78.407 179.415C78.8585 179.189 79.3099 178.963 79.775 178.73C80.1611 178.923 80.5472 179.116 80.945 179.315C76.7962 182.442 72.5324 185.329 68.1537 188.122C65.9613 189.52 63.821 190.953 61.7131 192.478C55.7581 196.38 50.1673 195.687 43.505 194.525C44.675 192.965 45.845 191.405 47.015 189.845C47.2827 189.408 47.5504 188.97 47.8262 188.52C48.77 187.505 48.77 187.505 50.3422 187.359C50.7886 187.407 51.235 187.455 51.695 187.505C50.5032 186.927 49.3082 186.355 48.1119 185.787C47.4468 185.468 46.7816 185.149 46.0964 184.82C43.1878 183.624 40.5578 183.331 37.4356 183.373C36.6687 183.381 36.6687 183.381 35.8863 183.389C35.5047 183.396 35.1231 183.403 34.73 183.41C35.0075 184.098 35.285 184.785 35.5709 185.494C36.4195 187.74 36.8218 189.803 37.07 192.185C32.4808 191.529 29.0334 190.494 25.955 186.92C24.7021 184.567 23.802 182.107 22.8837 179.608C20.6226 173.736 18.1521 168.102 15.2005 162.544C12.3317 157.06 11.0446 151.589 10.1234 145.495C10.0245 144.847 9.92549 144.2 9.82351 143.533C8.51784 134.52 7.65981 125.252 7.82 116.135C11.0387 114.879 13.855 114.442 17.18 115.55C18.8099 114.977 18.8099 114.977 20.5072 114.124C21.0886 113.847 21.67 113.571 22.269 113.285C22.7132 113.067 23.1574 112.85 23.615 112.625C23.2689 112.468 22.9227 112.311 22.5661 112.15C19.0002 110.381 17.1851 108.584 15.425 105.02C16.2202 104.138 16.2202 104.138 17.18 103.265Z" fill="#04ADEA"/>
<path d="M103.175 116.135C103.572 118.279 103.959 120.424 104.345 122.57C104.457 123.173 104.568 123.775 104.683 124.396C104.789 124.988 104.894 125.58 105.003 126.19C105.101 126.729 105.199 127.268 105.3 127.824C105.371 128.407 105.442 128.989 105.515 129.59C105.632 130.314 105.748 131.039 105.868 131.785C105.808 135.424 102.81 137.617 100.371 139.994C99.8457 140.521 99.3203 141.049 98.7789 141.592C97.6672 142.701 96.5521 143.806 95.4282 144.903C93.9884 146.309 92.5677 147.733 91.152 149.164C89.7977 150.528 88.4296 151.879 87.0624 153.23C86.5528 153.743 86.0433 154.256 85.5183 154.784C85.0383 155.25 84.5583 155.715 84.0638 156.194C83.6442 156.607 83.2246 157.02 82.7923 157.446C81.53 158.255 81.53 158.255 80.0008 158.141C78.3535 157.585 77.0643 156.832 75.6069 155.883C75.0489 155.523 74.4908 155.164 73.9159 154.793C73.3397 154.415 72.7636 154.037 72.17 153.648C71.0245 152.906 69.8789 152.164 68.7331 151.422C68.2279 151.092 67.7226 150.762 67.2021 150.422C65.7564 149.494 64.2832 148.609 62.81 147.725C62.81 150.235 62.81 152.744 62.81 155.33C60.2203 154.467 59.9351 153.048 58.715 150.65C58.715 150.264 58.715 149.878 58.715 149.48C57.5567 149.19 57.5567 149.19 56.375 148.895C56.6352 149.143 56.8953 149.391 57.1634 149.647C59.8673 152.449 59.8673 152.449 59.9581 155.22C59.1757 157.437 58.9157 157.284 56.96 158.255C56.176 159.242 56.176 159.242 55.5798 160.417C55.3498 160.835 55.1198 161.254 54.8828 161.685C54.6513 162.122 54.4198 162.558 54.1813 163.008C53.8204 163.67 53.8204 163.67 53.4523 164.345C52.8607 165.432 52.2771 166.523 51.695 167.615C53.2828 168.905 54.8483 170.106 56.5578 171.235C57.0766 171.585 57.5955 171.935 58.13 172.295C58.13 172.488 58.13 172.681 58.13 172.88C39.6964 172.269 39.6964 172.269 32.975 169.37C38.8627 173.003 43.9492 173.744 50.8541 173.867C51.6116 173.887 52.3691 173.907 53.1495 173.928C55.0046 173.976 56.8596 174.016 58.715 174.05C55.2164 177.659 52.415 178.541 47.4263 178.849C40.2141 178.947 35.3987 177.864 30.05 172.88C25.955 168.762 25.955 168.762 25.955 166.445C27.6661 165.952 29.1768 165.791 30.9549 165.803C31.4489 165.805 31.9428 165.807 32.4517 165.809C33.2175 165.816 33.2175 165.816 33.9988 165.823C34.5183 165.826 35.0379 165.829 35.5732 165.831C36.8522 165.838 38.1311 165.848 39.41 165.86C39.3906 164.164 39.3513 162.473 39.3003 160.778C39.2969 160.3 39.2935 159.822 39.29 159.33C39.1974 156.788 39.058 155.635 37.4722 153.557C35.5663 152.161 34.1386 151.957 31.805 151.82C31.805 150.855 31.805 149.89 31.805 148.895C35.473 149.474 39.1409 150.053 42.92 150.65C43.1131 149.299 43.3061 147.947 43.505 146.555C43.895 145.247 44.2979 143.943 44.7116 142.643C46.3206 137.19 46.0508 131.709 45.845 126.08C45.2534 126.798 45.2534 126.798 44.6499 127.531C42.4802 129.38 41.4437 129.319 38.6422 129.188C37.5416 129.148 37.5416 129.148 36.4187 129.108C35.8615 129.074 35.3042 129.04 34.73 129.005C32.9578 133.894 32.9578 133.894 33.56 138.95C34.6178 140.434 35.7861 141.753 37.07 143.045C36.7035 143.231 36.337 143.416 35.9594 143.607C34.4112 144.491 33.1052 145.33 31.805 146.555C31.4172 147.911 31.4172 147.911 31.3663 149.37C31.1247 151.746 30.7369 152.314 28.9051 153.952C23.7162 157.67 23.7162 157.67 22.445 157.67C22.4488 156.99 22.4525 156.31 22.4564 155.609C22.2158 147.642 19.5004 143.174 14.5089 137.123C13.4117 135.687 12.6383 134.166 11.915 132.515C12.8577 130.51 13.8506 128.821 15.425 127.25C17.6901 126.526 19.5706 126.664 21.86 127.25C23.3075 128.076 24.5899 129.005 25.9184 130.008C27.1987 130.946 27.1987 130.946 29.3188 130.833C31.2338 130.291 31.2338 130.291 32.5728 129.078C34.2434 127.757 35.8775 126.912 37.8013 126.007C40.2112 125.042 40.2112 125.042 41.75 123.155C41.4001 122.998 41.0502 122.841 40.6897 122.68C39.4262 121.994 38.6156 121.287 37.655 120.23C37.8481 119.651 38.0411 119.072 38.24 118.475C38.6872 118.808 39.1344 119.14 39.5951 119.483C44.354 122.94 49.2228 125.513 54.62 127.835C54.4028 128.595 54.4028 128.595 54.1813 129.371C54.0328 131.376 54.1761 132.381 55.3973 133.991C57.6584 135.99 60.6057 136.992 63.3584 138.146C64.6207 138.686 65.8815 139.229 67.1404 139.777C67.9774 140.13 67.9774 140.13 68.8313 140.489C70.415 141.29 70.415 141.29 71.9359 142.591C73.2098 143.76 73.2098 143.76 74.5381 143.584C75.8402 142.969 76.9736 142.273 78.1548 141.448C78.625 141.122 79.0952 140.797 79.5796 140.462C80.0664 140.12 80.5532 139.778 81.0547 139.425C82.0135 138.759 82.9725 138.092 83.9317 137.426C84.4018 137.098 84.8719 136.771 85.3562 136.433C87.5719 134.904 89.8139 133.414 92.06 131.93C88.2299 127.607 88.2299 127.607 83.1959 125.335C82.0553 125.382 80.9151 125.438 79.775 125.495C78.4679 124.624 78.4679 124.624 77.435 123.74C78.3241 123.581 78.3241 123.581 79.2311 123.418C80.0219 123.27 80.8125 123.121 81.6031 122.972C81.9923 122.903 82.3814 122.834 82.7823 122.763C84.7499 122.387 86.3202 121.927 88.1021 120.996C89.72 120.23 89.72 120.23 90.9677 120.5C91.3523 120.676 91.7369 120.853 92.1331 121.034C93.4832 121.502 93.4832 121.502 94.985 121.4C97.0223 120.207 98.7495 118.854 100.54 117.328C102.005 116.135 102.005 116.135 103.175 116.135Z" fill="#EB2C57"/>
<path d="M28.295 22.535C28.295 29.2918 28.295 36.0485 28.295 43.01C41.0363 43.01 53.7776 43.01 66.905 43.01C66.905 39.5351 66.905 36.0602 66.905 32.48C71.7312 32.48 76.5575 32.48 81.53 32.48C81.53 37.3063 81.53 42.1325 81.53 47.105C87.1284 47.105 92.7269 47.105 98.495 47.105C98.495 44.7884 98.495 42.4718 98.495 40.085C103.9 40.085 109.306 40.085 114.875 40.085C114.875 44.7182 114.875 49.3514 114.875 54.125C111.014 54.125 107.153 54.125 103.175 54.125C103.175 55.4764 103.175 56.8277 103.175 58.22C97.9626 58.22 92.7503 58.22 87.38 58.22C87.38 55.9034 87.38 53.5868 87.38 51.2C80.2371 51.2 73.0943 51.2 65.735 51.2C65.735 57.3776 65.735 63.5552 65.735 69.92C58.3991 69.92 51.0632 69.92 43.505 69.92C43.505 62.5841 43.505 55.2482 43.505 47.69C37.1343 47.69 30.7637 47.69 24.2 47.69C24.2 53.2885 24.2 58.8869 24.2 64.655C18.2154 64.655 12.2309 64.655 6.06497 64.655C6.64997 57.635 6.64997 57.635 7.23497 55.88C7.22819 55.3748 7.2214 54.8695 7.21441 54.349C7.15511 47.2849 10.2852 41.4676 13.67 35.405C14.255 34.82 14.255 34.82 15.3359 34.7629C16.5356 34.7819 17.7353 34.801 18.935 34.82C18.935 34.0478 18.935 33.2756 18.935 32.48C19.3292 28.852 21.4694 27.0824 24.2 24.875C27.2848 22.535 27.2848 22.535 28.295 22.535Z" fill="#1B1818"/>
<path d="M24.2 47.6901C30.5707 47.6901 36.9413 47.6901 43.505 47.6901C43.505 55.026 43.505 62.3619 43.505 69.9201C50.8409 69.9201 58.1768 69.9201 65.735 69.9201C65.735 73.9741 65.735 78.0282 65.735 82.2051C55.8895 82.2051 46.0439 82.2051 35.9 82.2051C35.1278 85.4869 34.3556 88.7688 33.56 92.1501C30.9322 92.6756 29.65 92.6785 27.125 92.1501C27.0473 92.552 26.9697 92.9539 26.8896 93.368C26.7863 93.8952 26.683 94.4223 26.5766 94.9654C26.4748 95.488 26.373 96.0106 26.2681 96.549C25.955 98.0001 25.955 98.0001 25.37 99.7551C23.7855 99.5733 22.2012 99.3903 20.6169 99.2066C20.172 99.1557 19.727 99.1048 19.2686 99.0524C16.8037 98.7655 14.3596 98.4335 11.915 98.0001C11.8931 98.4254 11.8713 98.8507 11.8487 99.2889C11.5663 103.608 11.1272 107.967 9.575 112.04C8.70627 112.619 8.70627 112.619 7.82 113.21C6.14725 111.537 6.10768 109.61 5.73593 107.36C5.30992 104.349 5.30992 104.349 4.30999 101.51C4.25434 100.332 4.23284 99.1521 4.22773 97.9726C4.2885 87.6669 4.2885 87.6669 1.41927 77.893C0.547216 75.7273 0.30883 74 1.24431 71.8003C1.83915 70.6818 2.47421 69.6087 3.13999 68.5307C3.91219 67.2517 4.68439 65.9728 5.47999 64.6551C11.6576 64.6551 17.8352 64.6551 24.2 64.6551C24.2 59.0566 24.2 53.4582 24.2 47.6901Z" fill="#96989A"/>
<path d="M48.77 9.66504C48.77 14.6843 48.77 19.7036 48.77 24.875C54.7545 24.875 60.7391 24.875 66.905 24.875C66.905 27.1916 66.905 29.5082 66.905 31.895C67.969 31.8883 69.0331 31.8815 70.1293 31.8745C71.5286 31.869 72.9279 31.8637 74.3272 31.8585C75.0281 31.8536 75.7291 31.8487 76.4512 31.8436C77.128 31.8417 77.8048 31.8399 78.5022 31.8379C79.1241 31.8348 79.746 31.8318 80.3867 31.8286C82.115 31.895 82.115 31.895 85.04 32.48C85.04 34.9897 85.04 37.4993 85.04 40.085C89.4801 40.085 93.9203 40.085 98.495 40.085C98.495 42.4016 98.495 44.7182 98.495 47.105C92.8965 47.105 87.2981 47.105 81.53 47.105C81.53 42.2788 81.53 37.4525 81.53 32.48C76.7037 32.48 71.8775 32.48 66.905 32.48C66.905 35.9549 66.905 39.4298 66.905 43.01C54.1637 43.01 41.4224 43.01 28.295 43.01C28.2105 39.5955 28.1261 36.1809 28.0391 32.6629C28.0018 31.59 27.9645 30.5171 27.9261 29.4118C27.9141 28.5554 27.9037 27.699 27.8951 26.8426C27.8741 26.4028 27.8532 25.963 27.8316 25.51C27.8301 24.2153 27.8301 24.2153 28.295 21.95C29.2675 21.0286 30.2132 20.4078 31.394 19.7785C32.7314 18.9015 32.7314 18.9015 33.56 16.1C36.0696 16.1 38.5793 16.1 41.165 16.1C41.3822 15.2554 41.5994 14.4109 41.8231 13.5407C42.6764 10.9646 42.6764 10.9646 44.6384 9.92098C46.43 9.66504 46.43 9.66504 48.77 9.66504Z" fill="#838587"/>
<path d="M124.82 69.92C127.909 69.92 130.998 69.92 134.18 69.92C134.18 73.0088 134.18 76.0976 134.18 79.28C132.829 79.28 131.477 79.28 130.085 79.28C130.085 83.7202 130.085 88.1603 130.085 92.735C129.313 92.735 128.541 92.735 127.745 92.735C127.745 98.7196 127.745 104.704 127.745 110.87C128.324 111.063 128.903 111.256 129.5 111.455C131.391 114.229 130.979 117.614 130.67 120.815C129.211 126.932 123.903 132.657 119.847 137.305C117.752 139.831 117.208 141.932 117.007 145.182C116.63 146.555 116.63 146.555 115.46 147.611C113.099 148.551 111.063 148.502 108.55 148.42C108.089 148.412 107.627 148.404 107.152 148.396C106.021 148.375 104.891 148.344 103.76 148.31C104.003 146.568 104.248 145.025 104.945 143.403C106.623 138.905 105.358 133.312 104.711 128.676C104.637 128.112 104.563 127.549 104.487 126.968C104.136 124.369 103.732 121.836 103.12 119.286C102.204 114.871 102.467 110.312 102.517 105.824C102.523 104.893 102.528 103.961 102.533 103.03C102.546 100.768 102.566 98.5066 102.59 96.245C105.1 96.245 107.609 96.245 110.195 96.245C110.388 100.878 110.581 105.511 110.78 110.285C116.185 110.285 121.591 110.285 127.16 110.285C127.16 104.3 127.16 98.3159 127.16 92.15C121.755 92.15 116.349 92.15 110.78 92.15C110.78 91.1848 110.78 90.2195 110.78 89.225C116.378 89.225 121.977 89.225 127.745 89.225C127.745 90.1903 127.745 91.1555 127.745 92.15C128.324 92.15 128.903 92.15 129.5 92.15C129.5 87.9029 129.5 83.6558 129.5 79.28C127.956 79.28 126.411 79.28 124.82 79.28C124.82 76.1912 124.82 73.1024 124.82 69.92Z" fill="#BBBEC2"/>
<path d="M65.735 51.2C72.8778 51.2 80.0207 51.2 87.38 51.2C87.38 53.5166 87.38 55.8332 87.38 58.22C92.5923 58.22 97.8047 58.22 103.175 58.22C103.175 56.8686 103.175 55.5173 103.175 54.125C109.739 54.125 116.302 54.125 123.065 54.125C123.065 54.5111 123.065 54.8972 123.065 55.295C121.134 55.295 119.204 55.295 117.215 55.295C117.215 60.1212 117.215 64.9474 117.215 69.9199C118.952 69.9199 120.69 69.9199 122.48 69.9199C122.48 72.0435 122.48 74.167 122.48 76.3549C116.109 76.3549 109.739 76.3549 103.175 76.3549C103.175 70.5634 103.175 64.7719 103.175 58.805C97.9626 58.805 92.7503 58.805 87.38 58.805C87.38 67.8783 87.38 76.9516 87.38 86.2999C80.4302 86.1069 73.4804 85.9138 66.32 85.7149C66.32 84.5566 66.32 83.3983 66.32 82.2049C68.8296 82.2049 71.3393 82.2049 73.925 82.2049C73.925 78.1509 73.925 74.0968 73.925 69.9199C71.2223 69.9199 68.5196 69.9199 65.735 69.9199C65.735 63.7423 65.735 57.5648 65.735 51.2Z" fill="#BDBFC1"/>
<path d="M66.905 32.48C71.7313 32.48 76.5575 32.48 81.53 32.48C81.53 37.3062 81.53 42.1325 81.53 47.105C87.1285 47.105 92.7269 47.105 98.495 47.105C98.495 44.7884 98.495 42.4718 98.495 40.085C103.9 40.085 109.306 40.085 114.875 40.085C114.875 44.7182 114.875 49.3514 114.875 54.125C111.014 54.125 107.153 54.125 103.175 54.125C103.175 55.4763 103.175 56.8277 103.175 58.22C97.9627 58.22 92.7503 58.22 87.38 58.22C87.38 55.9034 87.38 53.5868 87.38 51.2C80.2372 51.2 73.0943 51.2 65.735 51.2C65.735 53.5166 65.735 55.8332 65.735 58.22C59.7505 58.22 53.7659 58.22 47.6 58.22C47.6 53.2007 47.6 48.1814 47.6 43.01C53.9707 43.01 60.3413 43.01 66.905 43.01C66.905 39.5351 66.905 36.0602 66.905 32.48Z" fill="#4A4A4C"/>
<path d="M35.9 82.79C38.2734 82.9432 40.6466 83.0992 43.0197 83.2578C43.8265 83.3113 44.6333 83.3641 45.4402 83.416C46.6021 83.491 47.7637 83.569 48.9254 83.647C49.6239 83.6929 50.3224 83.7389 51.042 83.7862C52.5053 83.9257 53.8011 84.1302 55.205 84.545C55.5582 95.2716 55.901 105.986 55.79 116.72C56.4385 116.551 57.0871 116.382 57.7552 116.208C58.6114 115.989 59.4675 115.769 60.3237 115.55C60.7506 115.438 61.1774 115.327 61.6171 115.212C63.6557 114.693 65.373 114.38 67.49 114.38C67.3305 114.035 67.171 113.69 67.0067 113.334C66.2869 111.771 65.5721 110.205 64.8575 108.64C64.6064 108.096 64.3553 107.553 64.0965 106.993C63.859 106.471 63.6215 105.949 63.3767 105.411C63.0459 104.689 63.0459 104.689 62.7083 103.953C62.225 102.68 62.225 102.68 62.225 100.925C69.1111 102.482 75.5926 104.581 82.1253 107.259C84.5909 108.24 86.7503 108.78 89.4275 108.932C90.0368 108.971 90.6461 109.009 91.2739 109.049C91.7264 109.071 92.1788 109.093 92.645 109.115C91.67 110.09 90.695 111.065 89.72 112.04C89.2977 112.486 88.8754 112.933 88.4403 113.393C87.38 114.38 87.38 114.38 86.21 114.38C86.7891 115.828 86.7891 115.828 87.38 117.305C82.758 118.192 78.2487 118.648 73.5434 118.802C71.6002 118.919 71.6002 118.919 70.2396 119.911C68.3918 120.969 66.9336 121.217 64.8278 121.498C64.0929 121.598 63.358 121.698 62.6009 121.801C61.8374 121.898 61.0738 121.995 60.2872 122.095C59.5304 122.198 58.7737 122.302 57.994 122.409C54.3072 122.897 50.7343 123.292 47.015 123.155C46.8943 122.564 46.7737 121.973 46.6494 121.363C46.1395 119.487 45.4645 118.599 44.0557 117.282C41.6401 114.551 41.9183 111.837 42.0791 108.347C42.09 107.773 42.1009 107.199 42.1122 106.607C42.202 102.938 42.5028 99.305 42.92 95.66C42.4894 95.5892 42.0588 95.5183 41.6152 95.4452C41.0443 95.3472 40.4735 95.2492 39.8853 95.1482C39.322 95.0531 38.7587 94.9581 38.1783 94.8602C36.5375 94.5015 35.0972 93.9889 33.56 93.32C33.6122 92.442 33.6754 91.5646 33.7428 90.6875C33.7767 90.1989 33.8107 89.7102 33.8456 89.2068C34.24 86.9187 35.0406 84.9465 35.9 82.79Z" fill="#F38632"/>
<path d="M119.555 20.78C121.854 23.0791 123.493 25.3228 125.259 28.0194C125.555 28.4538 125.851 28.8881 126.157 29.3357C128.341 32.6676 128.341 32.6676 128.28 34.9114C128.164 36.5455 128.164 36.5455 129.029 37.4654C130.051 38.4204 131.107 39.2936 132.206 40.1582C132.567 40.4575 132.928 40.7569 133.3 41.0654C135.017 42.4712 136.488 43.5796 138.508 44.5411C140.306 46.1883 140.313 46.6784 140.54 49.0337C140.585 50.3402 140.609 51.6477 140.615 52.955C140.626 53.668 140.638 54.381 140.65 55.1156C140.672 57.3699 140.666 59.6219 140.652 61.8763C140.639 64.5307 140.627 67.1852 140.615 69.92C134.823 69.92 129.032 69.92 123.065 69.92C123.065 72.0436 123.065 74.1671 123.065 76.355C122.872 76.355 122.679 76.355 122.48 76.355C122.48 74.2315 122.48 72.1079 122.48 69.92C120.743 69.92 119.005 69.92 117.215 69.92C117.215 65.0938 117.215 60.2675 117.215 55.295C119.145 55.295 121.076 55.295 123.065 55.295C123.065 54.9089 123.065 54.5228 123.065 54.125C120.362 54.125 117.66 54.125 114.875 54.125C114.875 49.4918 114.875 44.8586 114.875 40.085C116.419 40.085 117.964 40.085 119.555 40.085C119.555 33.7144 119.555 27.3437 119.555 20.78Z" fill="#BDBCBE"/>
<path d="M104.93 134.27C106.1 135.44 106.1 135.44 106.392 137.561C106.301 140.739 104.675 142.543 102.59 144.8C101.879 145.448 101.156 146.083 100.424 146.706C97.4722 149.254 94.664 151.945 91.8543 154.648C91.4607 155.022 91.067 155.395 90.6615 155.78C90.3114 156.116 89.9613 156.451 89.6006 156.797C88.5244 157.691 87.4825 158.268 86.21 158.84C86.2779 159.257 86.3457 159.674 86.4156 160.104C86.5895 161.949 86.5842 163.456 86.21 165.275C85.071 166.64 83.9078 167.327 82.3641 168.209C80.7313 169.155 79.3216 170.127 77.8257 171.262C70.3235 176.77 70.3235 176.77 66.4868 176.299C64.8112 175.926 63.2488 175.387 61.656 174.752C61.0716 174.52 60.4871 174.289 59.885 174.05C59.3058 174.34 59.3058 174.34 58.715 174.635C56.1064 174.72 53.4987 174.604 50.8906 174.525C50.1735 174.514 49.4563 174.503 48.7174 174.492C43.5226 174.335 37.3316 173.961 33.4137 170.101C33.0759 169.667 32.7381 169.233 32.39 168.785C33.1019 169.05 33.8137 169.316 34.5472 169.589C41.9699 172.022 49.8108 172.017 57.545 172.295C55.4214 170.944 53.2979 169.592 51.11 168.2C55.0942 160.051 55.0942 160.051 56.96 157.67C57.5391 157.477 58.1183 157.284 58.715 157.085C59.3225 155.235 59.3225 155.235 59.3 152.99C58.3185 151.426 57.1232 150.166 55.79 148.895C55.983 148.509 56.1761 148.123 56.375 147.725C58.1239 149.328 59.4388 150.756 60.5797 152.844C61.4217 154.773 61.4217 154.773 62.81 155.33C62.6169 152.627 62.4239 149.925 62.225 147.14C65.4071 148.8 68.4736 150.509 71.4799 152.467C71.9728 152.787 72.4658 153.107 72.9736 153.436C73.9674 154.085 74.957 154.741 75.9423 155.403C76.404 155.704 76.8657 156.005 77.3413 156.315C77.7537 156.59 78.1662 156.865 78.5911 157.148C80.0985 157.813 80.5837 157.652 82.115 157.085C83.3113 156.142 83.3113 156.142 84.475 154.924C84.9316 154.468 85.3882 154.011 85.8586 153.54C86.3456 153.044 86.8326 152.548 87.3343 152.037C87.8374 151.532 88.3405 151.026 88.8588 150.505C90.4663 148.888 92.0675 147.264 93.6687 145.641C94.7568 144.544 95.8453 143.448 96.9342 142.351C99.6041 139.662 102.269 136.968 104.93 134.27Z" fill="#3E3F94"/>
<path d="M103.175 116.135C103.572 118.279 103.959 120.424 104.345 122.57C104.457 123.173 104.568 123.775 104.683 124.396C104.789 124.988 104.894 125.58 105.003 126.19C105.101 126.729 105.199 127.268 105.3 127.824C105.371 128.407 105.442 128.989 105.515 129.59C105.632 130.314 105.748 131.039 105.868 131.785C105.808 135.424 102.81 137.617 100.371 139.994C99.8457 140.521 99.3202 141.049 98.7789 141.592C97.6672 142.701 96.5521 143.806 95.4282 144.903C93.9884 146.309 92.5677 147.733 91.152 149.164C89.7977 150.528 88.4296 151.879 87.0623 153.23C86.5528 153.743 86.0433 154.256 85.5183 154.784C85.0383 155.25 84.5583 155.715 84.0638 156.194C83.4344 156.814 83.4344 156.814 82.7923 157.446C81.53 158.255 81.53 158.255 80.0002 158.14C78.3625 157.588 77.0779 156.844 75.6274 155.904C75.072 155.547 74.5166 155.189 73.9444 154.822C73.3709 154.446 72.7974 154.071 72.2066 153.685C71.6353 153.316 71.0641 152.948 70.4755 152.568C69.3732 151.856 68.2748 151.138 67.1809 150.413C65.8046 149.496 65.8046 149.496 64.577 148.865C63.2536 148.147 62.364 147.532 61.8509 146.086C61.6186 144.822 61.4999 143.596 61.4206 142.314C61.3807 141.878 61.3407 141.442 61.2995 140.993C61.2035 139.923 61.1273 138.852 61.055 137.78C63.4641 138.144 65.3595 138.946 67.5266 140.047C68.4236 140.497 68.4236 140.497 69.3387 140.956C71 141.875 71 141.875 72.2408 142.903C73.2745 143.76 73.2745 143.76 74.424 143.483C75.8574 142.983 76.9103 142.317 78.1548 141.448C78.625 141.122 79.0952 140.797 79.5796 140.462C80.0664 140.12 80.5532 139.778 81.0547 139.425C82.0135 138.759 82.9725 138.092 83.9317 137.426C84.4018 137.098 84.8719 136.771 85.3562 136.433C87.5719 134.904 89.8138 133.414 92.06 131.93C88.2298 127.607 88.2298 127.607 83.1959 125.335C82.0553 125.382 80.9151 125.438 79.775 125.495C78.4679 124.624 78.4679 124.624 77.435 123.74C78.0277 123.634 78.6204 123.527 79.2311 123.418C80.0218 123.27 80.8125 123.121 81.6031 122.972C81.9922 122.903 82.3813 122.834 82.7823 122.763C84.7499 122.387 86.3202 121.927 88.1021 120.996C89.72 120.23 89.72 120.23 90.9677 120.5C91.3523 120.676 91.7369 120.853 92.1331 121.034C93.4832 121.502 93.4832 121.502 94.985 121.4C97.0223 120.207 98.7495 118.854 100.54 117.328C102.005 116.135 102.005 116.135 103.175 116.135Z" fill="#E9228F"/>
<path d="M27.125 92.15C29.2486 92.15 31.3721 92.15 33.56 92.15C33.56 92.5361 33.56 92.9222 33.56 93.32C33.8926 93.3909 34.2251 93.4618 34.5678 93.5348C35.0195 93.6329 35.4712 93.7309 35.9366 93.8319C36.3777 93.9269 36.8189 94.0219 37.2734 94.1198C39.1738 94.5733 41.0428 95.1193 42.92 95.66C42.8986 96.2203 42.8771 96.7806 42.855 97.3579C42.7804 99.4553 42.7337 101.553 42.6951 103.651C42.6746 104.555 42.6467 105.46 42.6111 106.364C42.2049 112.512 42.2049 112.512 44.9675 117.762C45.3423 118.076 45.7171 118.39 46.1032 118.714C47.015 119.645 47.015 119.645 47.2869 120.951C47.271 122.278 47.271 122.278 47.015 124.325C44.6713 123.494 42.8146 122.376 40.7994 120.925C40.2489 120.535 39.6984 120.145 39.1312 119.743C37.655 118.475 37.655 118.475 36.8689 117.099C35.4315 114.801 33.4112 113.369 31.2931 111.711C30.8791 111.381 30.4651 111.051 30.0386 110.711C29.235 110.071 28.4293 109.434 27.6215 108.8C26.7127 108.082 25.818 107.346 24.9267 106.606C22.5865 104.82 20.1405 103.724 17.18 104.033C16.6009 104.232 16.6009 104.232 16.01 104.435C17.2747 108.103 18.4913 109.43 22.0063 111.163C23.1213 111.664 24.2408 112.156 25.37 112.625C23.6309 113.517 21.8718 114.321 20.0684 115.075C19.567 115.288 19.0655 115.502 18.5488 115.721C17.18 116.135 17.18 116.135 15.425 115.55C12.8049 115.451 10.3919 115.633 7.82 116.135C7.59981 113.493 7.59981 113.493 8.66166 112.13C9.72592 110.662 9.95829 109.605 10.2583 107.826C10.3582 107.253 10.4581 106.68 10.5611 106.089C10.658 105.495 10.7549 104.901 10.8547 104.289C10.9584 103.685 11.0621 103.082 11.1689 102.461C11.4234 100.975 11.6719 99.4879 11.915 98C16.489 98.2725 20.9029 98.7164 25.37 99.755C25.4477 99.3531 25.5254 98.9512 25.6054 98.537C25.7087 98.0099 25.812 97.4828 25.9184 96.9397C26.0203 96.4171 26.1221 95.8945 26.2269 95.3561C26.54 93.905 26.54 93.905 27.125 92.15Z" fill="#FAF087"/>
<path d="M17.18 103.265C21.8515 103.525 25.4619 106.413 28.88 109.298C29.2736 109.623 29.6673 109.949 30.0728 110.284C30.8562 110.933 31.6363 111.587 32.4131 112.244C33.1822 112.892 33.9583 113.531 34.7411 114.162C35.11 114.464 35.4788 114.766 35.8588 115.077C36.1891 115.343 36.5193 115.609 36.8595 115.883C38.166 117.258 38.3584 119.015 38.825 120.815C40.2719 122.238 40.2719 122.238 41.75 123.155C41.1328 125.078 40.5407 125.518 38.7564 126.558C38.027 126.905 37.2941 127.246 36.5581 127.579C33.7043 128.885 33.7043 128.885 31.0806 130.593C30.05 131.345 30.05 131.345 28.1122 131.345C26.1043 130.801 25.5445 130.516 24.0537 129.261C21.7958 127.533 19.7422 127.281 16.9355 127.385C14.9795 127.968 14.51 128.715 13.4506 130.431C13.2168 130.913 12.9831 131.395 12.7422 131.891C11.915 133.1 11.915 133.1 10.3565 133.559C9.68007 133.622 9.68007 133.622 8.98998 133.685C8.40405 131.708 8.29044 129.846 8.21988 127.789C8.19537 127.111 8.17086 126.432 8.14561 125.733C8.12261 125.027 8.09961 124.321 8.07591 123.594C8.05065 122.879 8.02539 122.164 7.99936 121.427C7.93734 119.663 7.87763 117.899 7.81998 116.135C11.0957 114.966 13.8031 114.424 17.18 115.55C18.8098 114.977 18.8098 114.977 20.5072 114.124C21.0886 113.847 21.67 113.571 22.269 113.285C22.7132 113.067 23.1574 112.85 23.615 112.625C23.2688 112.468 22.9227 112.311 22.5661 112.15C19.0001 110.381 17.1851 108.584 15.425 105.02C16.2202 104.138 16.2202 104.138 17.18 103.265Z" fill="#3F3F93"/>
<path d="M4.89498 65.24C5.08803 65.24 5.28108 65.24 5.47998 65.24C5.47998 67.7496 5.47998 70.2593 5.47998 72.845C11.4645 72.845 17.4491 72.845 23.615 72.845C23.615 74.7755 23.615 76.706 23.615 78.695C27.476 78.695 31.337 78.695 35.315 78.695C35.315 80.0463 35.315 81.3977 35.315 82.79C34.9735 82.7655 34.6319 82.741 34.2801 82.7157C26.3501 81.9562 26.3501 81.9562 19.4103 85.13C18.6626 85.9059 17.9179 86.6848 17.18 87.47C16.7939 87.47 16.4078 87.47 16.01 87.47C15.8652 87.9526 15.7204 88.4352 15.5712 88.9325C14.84 90.98 14.84 90.98 13.67 92.9544C12.2715 95.648 12.0626 98.4496 11.7492 101.417C11.3632 105.009 10.8921 108.657 9.57498 112.04C8.70625 112.619 8.70625 112.619 7.81998 113.21C6.14723 111.537 6.10766 109.61 5.73591 107.36C5.3099 104.349 5.3099 104.349 4.30998 101.51C4.25433 100.332 4.23282 99.152 4.22771 97.9726C4.28849 87.6668 4.28849 87.6668 1.41925 77.8929C0.666702 76.024 0.558835 74.8477 0.799976 72.845C1.69576 70.8386 1.69576 70.8386 2.84748 68.8231C3.14044 68.3028 3.14044 68.3028 3.43933 67.7719C3.91791 66.9242 4.40553 66.0815 4.89498 65.24Z" fill="#606164"/>
<path d="M37.655 118.475C38.0788 118.75 38.5026 119.025 38.9393 119.309C43.1541 122.025 43.1541 122.025 47.6 124.325C47.407 126.642 47.2139 128.958 47.015 131.345C46.822 131.345 46.6289 131.345 46.43 131.345C46.1404 128.739 46.1404 128.739 45.845 126.08C45.5313 126.563 45.2176 127.045 44.8944 127.542C43.5693 128.922 42.8542 129.011 40.9022 129.199C38.8382 129.189 36.7901 129.13 34.73 129.005C32.9578 133.893 32.9578 133.893 33.56 138.95C34.6178 140.434 35.7861 141.753 37.07 143.045C36.7035 143.23 36.337 143.416 35.9594 143.607C34.4112 144.491 33.1052 145.33 31.805 146.555C31.4172 147.911 31.4172 147.911 31.3663 149.37C31.1247 151.746 30.7369 152.314 28.9051 153.952C23.7162 157.67 23.7162 157.67 22.445 157.67C22.4488 156.99 22.4525 156.31 22.4564 155.609C22.2158 147.642 19.5004 143.174 14.5089 137.123C13.4117 135.687 12.6383 134.166 11.915 132.515C12.8577 130.51 13.8506 128.821 15.425 127.25C17.6901 126.526 19.5706 126.664 21.86 127.25C23.3075 128.076 24.5899 129.005 25.9184 130.008C27.1987 130.946 27.1987 130.946 29.3188 130.833C31.2338 130.291 31.2338 130.291 32.5728 129.078C34.2434 127.757 35.8775 126.912 37.8013 126.007C40.2112 125.042 40.2112 125.042 41.75 123.155C41.4001 122.998 41.0502 122.841 40.6897 122.68C39.3994 121.979 38.57 121.374 37.655 120.23C37.655 119.651 37.655 119.072 37.655 118.475Z" fill="#F28633"/>
<path d="M67.49 120.815C66.7178 121.394 65.9456 121.973 65.15 122.57C65.343 123.149 65.5361 123.728 65.735 124.325C64.4944 125.303 63.251 126.278 62.0056 127.25C61.6527 127.529 61.2998 127.808 60.9362 128.095C58.2625 130.175 58.2625 130.175 56.96 130.175C57.3461 130.754 57.7322 131.333 58.13 131.93C60.1944 131.586 61.2232 130.827 62.7369 129.407C67.706 124.91 67.706 124.91 70.415 124.91C71.0822 125.934 71.0822 125.934 71.7312 127.25C72.4475 128.539 72.4475 128.539 73.34 129.59C75.3875 130.175 75.3875 130.175 77.435 129.59C79.1362 128.504 79.1362 128.504 80.36 127.25C81.1322 127.636 81.9044 128.022 82.7 128.42C82.115 130.175 82.115 130.175 81.2101 130.865C79.1356 131.559 77.1083 131.468 74.9487 131.418C74.5129 131.413 74.077 131.408 73.6279 131.402C72.5569 131.388 71.4859 131.367 70.415 131.345C70.415 131.538 70.415 131.731 70.415 131.93C70.415 132.316 70.415 132.702 70.415 133.1C76.1857 133.334 79.8173 133.197 84.455 129.59C84.8411 129.59 85.2272 129.59 85.625 129.59C85.625 129.204 85.625 128.818 85.625 128.42C85.2751 128.275 84.9252 128.13 84.5647 127.981C83.1174 127.154 82.4463 126.284 81.53 124.91C83.718 124.593 84.4887 124.931 86.4042 126.128C87.0886 126.653 87.7672 127.186 88.4403 127.725C88.7898 127.99 89.1393 128.254 89.4995 128.526C90.3913 129.224 91.2305 129.989 92.06 130.76C92.06 131.339 92.06 131.918 92.06 132.515C91.1325 133.347 91.1325 133.347 89.8342 134.206C89.1262 134.681 89.1262 134.681 88.4039 135.167C87.8971 135.498 87.3903 135.83 86.8681 136.171C85.8448 136.852 84.8218 137.533 83.7991 138.214C83.3053 138.541 82.8115 138.868 82.3026 139.205C80.2166 140.611 78.2093 142.114 76.2124 143.644C75.095 144.215 75.095 144.215 73.9958 144.165C72.6499 143.585 71.5471 142.801 70.349 141.966C69.009 141.146 67.6341 140.544 66.1897 139.926C65.6336 139.688 65.0774 139.45 64.5044 139.205C63.3509 138.718 62.1946 138.238 61.0356 137.765C57.3948 136.191 55.3136 134.908 53.45 131.345C53.8522 129.334 53.8522 129.334 54.62 127.835C54.2671 127.729 53.9141 127.622 53.5505 127.513C48.6667 125.977 48.6667 125.977 47.015 124.325C47.015 123.939 47.015 123.553 47.015 123.155C49.659 122.76 52.3039 122.372 54.949 121.985C56.0695 121.818 56.0695 121.818 57.2125 121.647C57.9383 121.541 58.6641 121.436 59.412 121.327C60.0767 121.229 60.7415 121.131 61.4265 121.03C63.4633 120.807 65.4427 120.779 67.49 120.815Z" fill="#07AFEB"/>
<path d="M126.575 110.651C127.172 110.608 127.172 110.608 127.782 110.564C128.915 110.87 128.915 110.87 129.923 112.136C131.348 115.301 131.152 118.812 130.348 122.154C128.141 127.739 123.762 132.818 119.847 137.305C117.752 139.831 117.208 141.932 117.007 145.182C116.63 146.555 116.63 146.555 115.46 147.611C113.099 148.552 111.063 148.502 108.55 148.42C108.089 148.412 107.627 148.404 107.152 148.396C106.021 148.375 104.891 148.344 103.76 148.31C104.006 146.544 104.269 144.983 104.955 143.331C105.604 141.644 105.653 140.276 105.698 138.475C105.9 135.433 106.546 133.616 108.317 131.165C109.193 129.941 109.707 128.668 110.195 127.25C110.967 127.443 111.739 127.636 112.535 127.835C112.178 131.623 112.178 131.623 111.109 133.063C110.195 133.685 110.195 133.685 109.025 133.685C109.411 134.457 109.797 135.229 110.195 136.025C110.774 135.03 110.774 135.03 111.365 134.014C112.752 132.037 112.752 132.037 114.295 131.59C115.462 131.497 116.631 131.42 117.8 131.345C118.887 130.504 118.887 130.504 119.555 129.59C119.941 129.59 120.327 129.59 120.725 129.59C120.945 125.897 120.945 125.897 119.555 122.57C118.191 122.374 118.191 122.374 116.63 122.57C116.232 122.968 115.834 123.366 115.423 123.777C115.049 124.151 114.675 124.525 114.29 124.91C112.974 124.764 112.974 124.764 111.95 124.325C113.741 119.086 118.142 114.752 122.48 111.455C123.974 110.957 125.03 110.727 126.575 110.651Z" fill="#0EAFE5"/>
<path d="M55.205 90.395C63.9194 90.0287 69.2547 91.189 76.1859 96.4881C78.3884 98.1225 80.715 99.5648 83.0291 101.035C83.8713 101.579 84.713 102.123 85.5541 102.669C86.1567 103.058 86.7592 103.448 87.38 103.85C86.2831 107.214 86.2831 107.214 85.625 108.53C82.9642 108.195 80.8811 107.471 78.4587 106.336C74.2461 104.468 69.9764 103.246 65.5248 102.084C63.395 101.51 63.395 101.51 62.225 100.925C62.3845 101.291 62.544 101.657 62.7083 102.034C63.4269 103.687 64.1422 105.34 64.8575 106.994C65.1086 107.57 65.3597 108.147 65.6185 108.74C65.856 109.291 66.0935 109.841 66.3383 110.408C66.5589 110.917 66.7794 111.425 67.0067 111.949C67.49 113.21 67.49 113.21 67.49 114.38C65.8696 114.772 64.2486 115.162 62.6272 115.55C62.1676 115.662 61.7079 115.773 61.2344 115.888C60.7913 115.994 60.3483 116.099 59.8919 116.208C59.2807 116.355 59.2807 116.355 58.6572 116.505C57.545 116.72 57.545 116.72 55.79 116.72C55.2777 107.937 55.1303 99.1919 55.205 90.395Z" fill="#FCF7D3"/>
<path d="M62.225 100.925C69.1111 102.482 75.5926 104.581 82.1253 107.259C84.5909 108.24 86.7503 108.78 89.4275 108.932C90.0368 108.971 90.6461 109.009 91.2739 109.049C91.9526 109.082 91.9526 109.082 92.645 109.115C91.67 110.09 90.695 111.065 89.72 112.04C89.0865 112.71 89.0865 112.71 88.4403 113.393C87.38 114.38 87.38 114.38 86.21 114.38C86.7891 115.828 86.7891 115.828 87.38 117.305C82.758 118.192 78.2487 118.648 73.5434 118.802C71.6002 118.919 71.6002 118.919 70.2396 119.911C68.3918 120.969 66.9336 121.217 64.8278 121.498C64.0929 121.598 63.358 121.698 62.6009 121.801C61.8374 121.898 61.0738 121.995 60.2872 122.095C59.5304 122.198 58.7737 122.302 57.994 122.409C54.3072 122.897 50.7343 123.292 47.015 123.155C46.8219 121.804 46.6289 120.452 46.43 119.06C48.9512 118.384 51.4746 117.716 53.9984 117.049C54.7077 116.859 55.4169 116.668 56.1476 116.472C59.9418 115.475 63.5763 114.68 67.49 114.38C67.3305 114.035 67.171 113.69 67.0067 113.334C66.2869 111.771 65.5721 110.205 64.8575 108.64C64.6064 108.096 64.3553 107.553 64.0965 106.993C63.7402 106.21 63.7402 106.21 63.3767 105.411C63.1561 104.93 62.9356 104.449 62.7083 103.953C62.225 102.68 62.225 102.68 62.225 100.925Z" fill="#F08632"/>
<path d="M105.515 140.12C106.736 143.784 103.539 148.709 101.885 152.092C98.6788 158.437 95.389 164.279 90.7072 169.662C90.3893 170.036 90.0715 170.409 89.744 170.794C85.5147 175.677 80.8417 178.822 75.2778 182.094C74.6183 182.487 73.9589 182.88 73.2794 183.284C68.0611 186.382 68.0611 186.382 65.735 187.505C66.1127 183.35 66.7542 178.386 69.7249 175.275C71.6878 173.88 73.754 172.715 75.8582 171.547C76.865 170.982 77.8665 170.408 78.8631 169.826C79.8692 169.239 80.8874 168.672 81.9175 168.128C83.3797 167.273 84.5018 166.547 85.625 165.275C85.9404 163.623 85.9518 162.078 85.9713 160.399C86.3419 157.978 87.6795 157.126 89.5709 155.71C90.0062 155.391 90.4415 155.073 90.89 154.745C91.6947 154.018 92.4885 153.279 93.2711 152.528C93.8582 151.974 93.8582 151.974 94.4571 151.409C95.2525 150.655 96.0477 149.901 96.8428 149.146C98.5979 147.49 100.351 145.863 102.224 144.341C103.763 143.043 104.601 141.898 105.515 140.12Z" fill="#FAED0D"/>
<path d="M39.41 155.915C40.0495 156.298 40.6889 156.681 41.3478 157.076C44.3977 158.601 47.1769 158.521 50.525 158.401C51.0898 158.391 51.6546 158.38 52.2366 158.369C53.6167 158.342 54.9955 158.304 56.375 158.255C55.5039 160.534 54.4774 162.696 53.3769 164.873C53.0617 165.498 52.7464 166.123 52.4217 166.767C52.1819 167.24 51.9421 167.713 51.695 168.2C52.1595 168.489 52.624 168.778 53.1026 169.075C53.6999 169.45 54.2971 169.825 54.9125 170.211C55.8084 170.771 55.8084 170.771 56.7223 171.342C57.1869 171.657 57.6514 171.971 58.13 172.295C58.13 172.488 58.13 172.681 58.13 172.88C39.6964 172.269 39.6964 172.269 32.975 169.37C38.8627 173.003 43.9492 173.744 50.8541 173.867C51.9903 173.897 51.9903 173.897 53.1495 173.928C55.0046 173.976 56.8596 174.016 58.715 174.05C55.2163 177.659 52.415 178.542 47.4263 178.849C40.2141 178.947 35.3987 177.864 30.05 172.88C25.955 168.762 25.955 168.762 25.955 166.445C27.666 165.953 29.1768 165.791 30.9549 165.803C31.4488 165.805 31.9428 165.807 32.4517 165.809C32.9622 165.814 33.4727 165.818 33.9987 165.823C34.5183 165.826 35.0379 165.829 35.5732 165.831C36.8522 165.838 38.1311 165.849 39.41 165.86C39.41 162.578 39.41 159.296 39.41 155.915Z" fill="#EA3137"/>
<path d="M81.53 24.29C87.1284 24.29 92.7269 24.29 98.495 24.29C98.495 26.7997 98.495 29.3093 98.495 31.895C103.9 31.895 109.306 31.895 114.875 31.895C114.875 34.5977 114.875 37.3004 114.875 40.085C105.029 40.085 95.1839 40.085 85.04 40.085C85.04 37.5754 85.04 35.0657 85.04 32.48C84.0747 32.48 83.1095 32.48 82.115 32.48C80.1797 30.5447 81.53 27.027 81.53 24.29Z" fill="#B5B7B8"/>
<path d="M93.23 108.53C96.1156 107.963 96.1156 107.963 97.91 108.53C99.7637 110.493 101.186 112.665 102.59 114.965C101.696 117.282 100.283 118.369 98.3122 119.828C97.7594 120.248 97.2067 120.668 96.6372 121.101C94.985 121.985 94.985 121.985 93.4608 121.864C92.5996 121.579 91.7388 121.293 90.8786 121.005C89.292 120.745 88.4303 121.213 86.9778 121.875C84.2045 123.066 81.565 123.752 78.605 124.325C79.528 124.687 79.528 124.687 80.4697 125.056C82.4588 125.909 84.0356 126.927 85.625 128.42C85.625 128.806 85.625 129.192 85.625 129.59C81.3971 132.787 77.4856 134.168 72.17 133.685C69.9842 132.956 69.7203 132.144 68.66 130.175C69.5287 130.465 69.5287 130.465 70.415 130.76C71.9702 130.831 73.5033 130.868 75.0584 130.87C75.6868 130.88 75.6868 130.88 76.3278 130.891C78.5463 130.898 80.2348 130.832 82.115 129.59C81.9219 129.011 81.7289 128.432 81.53 127.835C80.0712 128.539 78.7914 129.271 77.435 130.175C75.4241 130.431 75.4241 130.431 73.34 130.175C71.6073 128.533 70.9138 127.199 70.415 124.91C70.0553 125.114 69.6956 125.319 69.325 125.529C68.6157 125.929 68.6157 125.929 67.8922 126.336C67.4239 126.601 66.9556 126.865 66.4731 127.138C65.15 127.835 65.15 127.835 63.395 128.42C63.2019 128.999 63.0089 129.578 62.81 130.175C61.4572 131.491 61.4572 131.491 59.885 132.515C58.5687 132.478 58.5687 132.478 57.545 131.93C57.2554 131.061 57.2554 131.061 56.96 130.175C58.0913 129.307 59.225 128.442 60.3603 127.579C60.6804 127.333 61.0005 127.087 61.3304 126.833C62.7964 125.722 63.9766 124.911 65.735 124.325C65.735 123.939 65.735 123.553 65.735 123.155C65.3489 122.962 64.9628 122.769 64.565 122.57C70.3362 118.016 76.0017 117.707 83.1193 117.414C84.405 117.309 85.5561 117.071 86.795 116.72C86.5054 115.562 86.5054 115.562 86.21 114.38C87.1578 113.597 88.1091 112.817 89.0619 112.04C89.8559 111.388 89.8559 111.388 90.666 110.724C92.06 109.7 92.06 109.7 93.23 109.7C93.23 109.314 93.23 108.928 93.23 108.53Z" fill="#383433"/>
<path d="M24.2 47.6901C30.5706 47.6901 36.9413 47.6901 43.505 47.6901C43.505 55.026 43.505 62.3619 43.505 69.9201C42.1536 69.9201 40.8023 69.9201 39.41 69.9201C39.41 68.1826 39.41 66.4452 39.41 64.6551C34.3907 64.6551 29.3714 64.6551 24.2 64.6551C24.2 59.0566 24.2 53.4582 24.2 47.6901Z" fill="#717275"/>
<path d="M80.36 0.890015C82.1122 1.71542 83.6563 2.67854 85.2365 3.79673C85.7146 4.1308 86.1927 4.46487 86.6853 4.80906C87.6816 5.50921 88.6764 6.21151 89.6697 6.91597C93.4371 9.54009 96.4181 10.8916 101.054 11.2006C101.674 11.2444 102.294 11.2881 102.933 11.3332C103.399 11.3618 103.865 11.3905 104.345 11.42C104.924 12.7714 105.503 14.1227 106.1 15.515C96.8336 15.515 87.5672 15.515 78.02 15.515C78.02 13.5845 78.02 11.654 78.02 9.66501C68.5605 9.66501 59.1011 9.66501 49.355 9.66501C49.94 5.57001 49.94 5.57001 50.525 3.81501C56.2776 3.475 61.6856 4.5174 67.3072 5.57001C68.236 5.73963 69.1649 5.90874 70.0939 6.07732C72.3471 6.48732 74.5988 6.90422 76.85 7.32501C77.1011 6.66103 77.1011 6.66103 77.3573 5.98363C78.1413 4.11 79.2004 2.55212 80.36 0.890015Z" fill="#BEBCBE"/>
<path d="M10.9561 132.917C12.5 133.1 12.5 133.1 13.5023 134.083C13.7944 134.534 14.0866 134.985 14.3875 135.449C14.8762 136.186 14.8762 136.186 15.3747 136.937C15.705 137.456 16.0353 137.976 16.3756 138.511C17.0411 139.526 17.7069 140.541 18.3728 141.555C18.6636 142.008 18.9544 142.462 19.2541 142.929C20.0725 144.225 20.0725 144.225 21.0692 145.33C22.1197 146.957 22.128 148.167 22.2051 150.095C22.2416 150.781 22.2782 151.468 22.3159 152.175C22.3773 153.613 22.4367 155.052 22.4941 156.49C22.7093 160.461 22.9977 163.2 25.37 166.445C23.6325 167.989 21.8951 169.534 20.105 171.125C18.0004 168.319 16.6077 165.393 15.0959 162.24C14.8067 161.653 14.5175 161.066 14.2196 160.461C11.7881 155.404 10.7203 150.704 10.1234 145.166C10.0757 144.738 10.0279 144.311 9.97875 143.871C9.84067 142.621 9.7073 141.371 9.57499 140.12C9.50109 139.443 9.42719 138.766 9.35104 138.068C9.02019 134.819 9.02019 134.819 8.98999 133.685C9.57499 133.1 9.57499 133.1 10.9561 132.917Z" fill="#CCE4D1"/>
<path d="M62.225 147.14C64.3984 150.038 66.1349 153.102 67.9287 156.244C68.2884 156.861 68.6481 157.477 69.0188 158.112C69.5244 158.998 69.5244 158.998 70.0402 159.903C70.3507 160.442 70.6612 160.982 70.9811 161.538C71.585 162.935 71.585 162.935 71 164.69C69.9823 165.741 68.8815 166.627 67.7413 167.544C66.2611 168.763 66.2611 168.763 65.0449 170.373C62.7038 172.973 60.9107 174.428 57.4362 174.874C50.1798 175.166 40.3817 175.454 34.2347 170.912C33.4137 170.101 33.4137 170.101 32.39 168.785C33.1019 169.05 33.8137 169.316 34.5472 169.589C41.9699 172.022 49.8108 172.017 57.545 172.295C55.4214 170.944 53.2979 169.592 51.11 168.2C55.0942 160.051 55.0942 160.051 56.96 157.67C57.5391 157.477 58.1183 157.284 58.715 157.085C59.3225 155.235 59.3225 155.235 59.3 152.99C58.3185 151.426 57.1232 150.166 55.79 148.895C55.983 148.509 56.1761 148.123 56.375 147.725C58.1239 149.328 59.4388 150.756 60.5797 152.844C61.4217 154.773 61.4217 154.773 62.81 155.33C62.6169 152.627 62.4239 149.925 62.225 147.14Z" fill="#737273"/>
<path d="M114.875 54.125C117.578 54.125 120.28 54.125 123.065 54.125C123.065 54.5111 123.065 54.8972 123.065 55.295C121.134 55.295 119.204 55.295 117.215 55.295C117.215 60.1213 117.215 64.9475 117.215 69.92C118.952 69.92 120.69 69.92 122.48 69.92C122.48 72.0436 122.48 74.1671 122.48 76.355C116.302 76.355 110.125 76.355 103.76 76.355C103.76 70.5635 103.76 64.772 103.76 58.805C107.428 58.805 111.096 58.805 114.875 58.805C114.875 57.2606 114.875 55.7162 114.875 54.125Z" fill="#353233"/>
<path d="M55.205 84.545C59.1984 84.384 62.4983 84.8715 66.32 86.0075C67.1172 86.2424 67.1172 86.2424 67.9304 86.4821C75.88 88.9196 82.384 91.6871 87.965 98C88.7452 98.7082 89.5372 99.4035 90.3415 100.084C97.0093 105.828 97.0093 105.828 97.91 108.53C96.3656 108.53 94.8212 108.53 93.23 108.53C92.9404 109.109 92.9404 109.109 92.645 109.7C90.3284 109.507 88.0118 109.314 85.625 109.115C86.0645 106.918 86.3504 105.703 87.38 103.85C86.9811 103.712 86.5821 103.574 86.1711 103.432C84.0803 102.516 82.2712 101.295 80.3965 100.011C80.0098 99.7542 79.623 99.4974 79.2245 99.2328C77.341 97.9805 75.5 96.7073 73.717 95.3149C67.9503 90.9755 62.2952 90.6043 55.205 90.395C55.205 88.4645 55.205 86.534 55.205 84.545Z" fill="#A73794"/>
<path d="M140.615 56.465C140.808 56.465 141.001 56.465 141.2 56.465C141.773 60.8346 142.308 65.3798 141.488 69.7464C141.172 71.8655 141.199 73.8747 141.198 76.0168C140.951 82.915 138.048 88.9565 135.387 95.2212C134.89 96.4188 134.396 97.617 133.902 98.8158C132.812 101.459 131.706 104.096 130.594 106.73C130.018 108.104 129.46 109.484 128.915 110.87C128.529 110.87 128.143 110.87 127.745 110.87C127.745 104.885 127.745 98.9009 127.745 92.735C128.517 92.735 129.289 92.735 130.085 92.735C130.085 88.2948 130.085 83.8547 130.085 79.28C131.436 79.28 132.788 79.28 134.18 79.28C134.18 76.1912 134.18 73.1024 134.18 69.92C136.304 69.92 138.427 69.92 140.615 69.92C140.615 65.4798 140.615 61.0397 140.615 56.465Z" fill="#353031"/>
<path d="M42.92 96.245C53.5116 97.4766 53.5116 97.4766 55.205 99.17C55.7904 103.194 55.8615 107.139 55.8265 111.199C55.8239 111.789 55.8213 112.379 55.8185 112.987C55.8117 114.426 55.8021 115.866 55.79 117.305C48.1364 119.593 48.1364 119.593 45.845 119.06C43.874 117.553 42.519 115.916 42.042 113.452C41.9682 111.726 41.9999 110.036 42.079 108.311C42.09 107.731 42.1009 107.152 42.1122 106.556C42.1967 103.09 42.4893 99.6834 42.92 96.245Z" fill="#EB2F35"/>
<path d="M17.18 103.265C21.8515 103.525 25.4619 106.413 28.88 109.298C29.2736 109.623 29.6673 109.949 30.0728 110.284C30.8567 110.934 31.6368 111.589 32.4127 112.248C33.1776 112.889 33.9553 113.516 34.745 114.126C37.5273 116.328 37.5273 116.328 38.1829 118.342C38.1896 118.845 38.1964 119.347 38.2034 119.864C38.2208 120.376 38.2381 120.887 38.256 121.414C38.2507 121.795 38.2454 122.177 38.24 122.57C34.5178 125.051 29.6959 124.755 25.37 124.325C22.0728 123.104 19.3555 119.786 17.765 116.72C18.35 114.965 18.35 114.965 19.5588 114.282C20.0407 114.085 20.5226 113.888 21.0191 113.685C21.5024 113.484 21.9858 113.283 22.4838 113.075C22.8571 112.927 23.2304 112.778 23.615 112.625C23.2689 112.468 22.9227 112.311 22.5661 112.15C19.0002 110.381 17.1851 108.584 15.425 105.02C16.2202 104.138 16.2202 104.138 17.18 103.265Z" fill="#3A3738"/>
<path d="M30.05 82.205C30.8475 82.2797 30.8475 82.2797 31.661 82.3559C32.8819 82.4743 34.0992 82.6279 35.315 82.79C34.991 86.3546 34.1862 89.3647 32.975 92.735C31.0445 92.542 29.114 92.3489 27.125 92.15C26.944 93.0791 26.763 94.0081 26.5766 94.9653C26.2538 96.6222 25.9047 98.1508 25.37 99.755C23.785 99.5891 22.2009 99.4177 20.6169 99.2432C20.172 99.1972 19.727 99.1512 19.2686 99.1038C16.6771 98.8133 14.3708 98.3487 11.915 97.415C12.796 92.11 15.1521 87.8351 19.3006 84.3988C22.9613 81.8858 25.7349 81.625 30.05 82.205Z" fill="#03AFEC"/>
<path d="M45.845 125.495C46.038 125.495 46.2311 125.495 46.43 125.495C46.7452 132.66 46.559 138.882 44.202 145.696C43.6302 147.36 43.2096 148.919 42.92 150.65C39.393 150.35 35.8883 150.024 32.39 149.48C32.1004 148.611 32.1004 148.611 31.805 147.725C33.0904 145.44 34.3633 143.961 36.485 142.46C36.1826 142.17 35.8802 141.879 35.5686 141.58C32.4093 138.322 32.4093 138.322 32.3169 135.732C33.0503 133.451 33.833 131.228 34.73 129.005C35.5659 128.993 35.5659 128.993 36.4187 128.98C41.0372 129.061 41.0372 129.061 44.8578 126.921C45.1836 126.45 45.5093 125.98 45.845 125.495Z" fill="#9F94C5"/>
<path d="M24.2 64.655C29.2193 64.655 34.2386 64.655 39.41 64.655C39.41 66.3925 39.41 68.1299 39.41 69.92C40.7613 69.92 42.1127 69.92 43.505 69.92C43.505 72.8158 43.505 75.7115 43.505 78.695C37.043 78.772 30.6531 78.4612 24.2 78.11C24.2 73.6699 24.2 69.2297 24.2 64.655Z" fill="#A7AAAC"/>
<path d="M65.735 69.92C68.4377 69.92 71.1404 69.92 73.925 69.92C73.925 73.9741 73.925 78.0281 73.925 82.205C71.4153 82.205 68.9057 82.205 66.32 82.205C66.32 83.3633 66.32 84.5216 66.32 85.715C71.5323 85.715 76.7447 85.715 82.115 85.715C82.115 87.8386 82.115 89.9621 82.115 92.15C79.586 91.6442 78.1331 91.0997 75.8994 89.9563C65.9892 85.4051 56.1159 84.5985 45.3585 83.9528C44.8651 83.9218 44.3717 83.8908 43.8634 83.8589C42.9253 83.8011 41.987 83.7481 41.0483 83.7005C38.8701 83.5674 37.7546 83.4415 35.9 82.205C45.7455 82.205 55.5911 82.205 65.735 82.205C65.735 78.151 65.735 74.0969 65.735 69.92Z" fill="#E3E3E5"/>
<path d="M32.975 144.8C33.3611 144.993 33.7472 145.186 34.145 145.385C33.8675 145.687 33.59 145.988 33.304 146.299C32.1396 148.116 32.0094 149.694 31.805 151.82C32.4083 151.748 33.0115 151.675 33.6331 151.601C36.2723 151.856 36.9452 152.357 38.6927 154.212C40.0254 156.29 39.7766 158.429 39.6294 160.814C39.557 162.479 39.4846 164.145 39.41 165.86C34.9698 166.053 30.5297 166.246 25.955 166.445C25.7619 166.831 25.5689 167.217 25.37 167.615C25.2079 167.284 25.0457 166.953 24.8787 166.612C24.5608 165.968 24.5608 165.968 24.2365 165.312C24.0262 164.884 23.8158 164.456 23.599 164.016C23.1097 162.957 23.1097 162.957 22.445 162.35C21.7906 159.531 21.7906 159.531 22.445 157.67C27.8644 152.405 27.8644 152.405 30.635 152.405C30.5626 151.337 30.5626 151.337 30.4887 150.248C30.4743 148.213 30.6109 147.761 31.805 145.97C32.1911 145.584 32.5772 145.198 32.975 144.8Z" fill="#3E3F91"/>
<path d="M110.78 92.735C116.185 92.735 121.591 92.735 127.16 92.735C127.16 98.5265 127.16 104.318 127.16 110.285C123.685 110.285 120.21 110.285 116.63 110.285C116.63 105.459 116.63 100.632 116.63 95.66C114.699 95.66 112.769 95.66 110.78 95.66C110.78 94.6947 110.78 93.7295 110.78 92.735Z" fill="#E6E7E8"/>
<path d="M62.225 100.925C69.1111 102.482 75.5926 104.581 82.1253 107.259C84.591 108.24 86.7503 108.78 89.4275 108.932C90.0368 108.971 90.6461 109.009 91.2739 109.049C91.9526 109.082 91.9526 109.082 92.645 109.115C91.9642 109.816 91.2786 110.513 90.5724 111.188C89.5802 112.151 89.5802 112.151 88.2941 113.795C87.3914 114.535 87.3914 114.535 86.21 114.965C84.2241 114.694 82.3557 114.181 80.4194 113.665C76.1999 112.702 71.7539 113.394 67.49 113.795C62.225 103.418 62.225 103.418 62.225 100.925Z" fill="#FCEE0C"/>
<path d="M27.125 92.15C29.2485 92.15 31.3721 92.15 33.56 92.15C33.56 92.5361 33.56 92.9222 33.56 93.32C33.8926 93.3909 34.2251 93.4618 34.5677 93.5348C35.0195 93.6329 35.4712 93.7309 35.9366 93.8319C36.3777 93.9269 36.8189 94.0219 37.2734 94.1198C39.1711 94.5726 41.0441 95.1241 42.92 95.66C42.7269 101.645 42.5339 107.629 42.335 113.795C40.1376 112.037 39.0727 111.148 37.5819 109.005C34.4057 104.808 30.5038 101.195 25.37 99.755C25.5514 98.8163 25.7345 97.8779 25.9184 96.9397C26.0202 96.4171 26.122 95.8945 26.2269 95.3561C26.54 93.905 26.54 93.905 27.125 92.15Z" fill="#C9C3DD"/>
<path d="M47.6 32.48C53.7776 32.48 59.9552 32.48 66.32 32.48C66.32 35.9549 66.32 39.4298 66.32 43.01C60.1424 43.01 53.9648 43.01 47.6 43.01C47.6 39.5351 47.6 36.0602 47.6 32.48Z" fill="#A9ACAF"/>
<path d="M102.59 96.245C105.1 96.245 107.609 96.245 110.195 96.245C110.388 100.878 110.581 105.511 110.78 110.285C112.71 110.478 114.641 110.671 116.63 110.87C116.63 112.607 116.63 114.345 116.63 116.135C111.997 116.135 107.364 116.135 102.59 116.135C102.59 109.571 102.59 103.008 102.59 96.245Z" fill="#D1D2D4"/>
<path d="M5.47998 64.655C11.6576 64.655 17.8352 64.655 24.2 64.655C24.2 69.0952 24.2 73.5353 24.2 78.11C28.061 78.11 31.922 78.11 35.9 78.11C35.9 79.8475 35.9 81.5849 35.9 83.375C35.7069 83.375 35.5139 83.375 35.315 83.375C35.315 81.8306 35.315 80.2862 35.315 78.695C31.454 78.695 27.593 78.695 23.615 78.695C23.615 76.7645 23.615 74.834 23.615 72.845C17.6304 72.845 11.6459 72.845 5.47998 72.845C5.47998 70.1423 5.47998 67.4396 5.47998 64.655Z" fill="#818385"/>
<path d="M124.82 69.92C127.909 69.92 130.998 69.92 134.18 69.92C134.18 73.0088 134.18 76.0976 134.18 79.28C132.829 79.28 131.477 79.28 130.085 79.28C130.085 83.7202 130.085 88.1603 130.085 92.735C129.313 92.735 128.541 92.735 127.745 92.735C127.745 98.7196 127.745 104.704 127.745 110.87C127.552 110.87 127.359 110.87 127.16 110.87C127.16 104.692 127.16 98.5148 127.16 92.15C121.755 92.15 116.349 92.15 110.78 92.15C110.78 91.1848 110.78 90.2195 110.78 89.225C116.378 89.225 121.977 89.225 127.745 89.225C127.745 90.1903 127.745 91.1555 127.745 92.15C128.324 92.15 128.903 92.15 129.5 92.15C129.5 87.9029 129.5 83.6558 129.5 79.28C127.956 79.28 126.411 79.28 124.82 79.28C124.82 76.1912 124.82 73.1024 124.82 69.92Z" fill="#BEC0C2"/>
<path d="M65.735 51.2C72.8778 51.2 80.0207 51.2 87.38 51.2C87.38 53.5166 87.38 55.8332 87.38 58.22C80.2371 58.22 73.0943 58.22 65.735 58.22C65.735 55.9034 65.735 53.5868 65.735 51.2Z" fill="#828486"/>
<path d="M81.53 32.48C82.6883 32.48 83.8466 32.48 85.04 32.48C85.04 34.9896 85.04 37.4993 85.04 40.085C89.4801 40.085 93.9203 40.085 98.495 40.085C98.495 42.4016 98.495 44.7182 98.495 47.105C92.8965 47.105 87.2981 47.105 81.53 47.105C81.53 42.2787 81.53 37.4525 81.53 32.48Z" fill="#828486"/>
<path d="M55.205 99.17C62.225 100.925 62.225 100.925 64.0623 103.743C64.5013 104.853 64.9122 105.974 65.2962 107.104C65.5157 107.672 65.7351 108.241 65.9612 108.826C67.49 112.855 67.49 112.855 67.49 114.38C65.8696 114.772 64.2486 115.162 62.6272 115.55C62.1675 115.662 61.7079 115.773 61.2344 115.888C60.5698 116.047 60.5698 116.047 59.8918 116.208C59.4844 116.306 59.0769 116.404 58.6571 116.505C57.545 116.72 57.545 116.72 55.79 116.72C55.5969 110.929 55.4039 105.137 55.205 99.17Z" fill="#07B0E9"/>
<path d="M67.49 120.815C66.7178 121.394 65.9456 121.973 65.15 122.57C65.343 123.149 65.5361 123.728 65.735 124.325C64.4944 125.303 63.251 126.278 62.0056 127.25C61.6527 127.529 61.2998 127.808 60.9362 128.095C58.2625 130.175 58.2625 130.175 56.96 130.175C59.5142 132.851 62.3179 135.049 65.2551 137.288C68.0159 139.417 68.0159 139.417 68.66 140.705C65.7721 139.818 63.1066 138.658 60.3969 137.341C59.9859 137.153 59.5749 136.964 59.1514 136.77C56.4152 135.435 54.8487 134.165 53.45 131.345C53.8887 129.371 53.8887 129.371 54.62 127.835C54.2671 127.729 53.9141 127.622 53.5505 127.513C48.6667 125.977 48.6667 125.977 47.015 124.325C47.015 123.939 47.015 123.553 47.015 123.155C49.659 122.76 52.3039 122.372 54.949 121.985C56.0695 121.818 56.0695 121.818 57.2125 121.647C57.9383 121.541 58.6641 121.436 59.412 121.327C60.0767 121.229 60.7415 121.131 61.4265 121.03C63.4633 120.807 65.4427 120.779 67.49 120.815Z" fill="#63C0C7"/>
<path d="M48.77 9.66504C48.77 13.7191 48.77 17.7731 48.77 21.95C42.2063 21.95 35.6426 21.95 28.88 21.95C29.8452 21.1778 30.8105 20.4056 31.805 19.61C32.8637 17.7868 32.8637 17.7868 33.56 16.1C36.0696 16.1 38.5793 16.1 41.165 16.1C41.3822 15.2554 41.5993 14.4109 41.8231 13.5407C42.6764 10.9646 42.6764 10.9646 44.6384 9.92098C46.43 9.66504 46.43 9.66504 48.77 9.66504Z" fill="#4E494B"/>
<path d="M124.82 55.295C127.909 55.295 130.998 55.295 134.18 55.295C134.18 60.1213 134.18 64.9475 134.18 69.92C131.091 69.92 128.002 69.92 124.82 69.92C124.82 65.0938 124.82 60.2675 124.82 55.295Z" fill="#FCFCFC"/>
<path d="M93.23 108.53C96.1156 107.963 96.1156 107.963 97.91 108.53C99.7636 110.493 101.186 112.665 102.59 114.965C101.696 117.282 100.283 118.369 98.3122 119.828C97.7594 120.248 97.2066 120.668 96.6371 121.101C94.985 121.985 94.985 121.985 93.4676 121.953C91.8575 121.32 90.8745 120.565 89.6103 119.389C89.2159 119.028 88.8215 118.667 88.4151 118.294C87.6714 117.584 86.9374 116.862 86.21 116.135C86.21 115.556 86.21 114.977 86.21 114.38C87.4485 113.185 87.4485 113.185 89.0618 111.93C89.5912 111.512 90.1206 111.093 90.666 110.662C92.06 109.7 92.06 109.7 93.23 109.7C93.23 109.314 93.23 108.928 93.23 108.53Z" fill="#3F3F93"/>
<path d="M98.495 27.215C105.252 27.215 112.008 27.215 118.97 27.215C118.97 31.4621 118.97 35.7092 118.97 40.085C117.619 40.085 116.267 40.085 114.875 40.085C114.875 37.3823 114.875 34.6796 114.875 31.895C109.47 31.895 104.064 31.895 98.495 31.895C98.495 30.3506 98.495 28.8062 98.495 27.215Z" fill="#1E1C1C"/>
<path d="M97.91 32.48C103.508 32.48 109.107 32.48 114.875 32.48C114.875 34.9896 114.875 37.4993 114.875 40.085C109.277 40.085 103.678 40.085 97.91 40.085C97.91 37.5753 97.91 35.0657 97.91 32.48Z" fill="#FBFBFB"/>
<path d="M52.28 187.505C50.8228 188.234 50.2846 187.959 48.77 187.505C48.546 188.007 48.546 188.007 48.3175 188.52C47.5234 189.986 46.5939 191.093 45.4793 192.331C45.1098 192.745 44.7403 193.158 44.3596 193.584C44.0776 193.894 43.7955 194.205 43.505 194.525C41.3957 194.211 39.5491 193.768 37.655 192.77C35.7803 190.057 35.1864 187.256 35.315 183.995C33.9636 183.995 32.6123 183.995 31.22 183.995C31.22 183.802 31.22 183.609 31.22 183.41C39.2389 181.722 45.3624 183.393 52.28 187.505Z" fill="#EE8433"/>
<path d="M18.935 119.06C21.1734 119.972 22.5306 121.442 24.2 123.155C27.3465 124.728 32.6792 124.123 36.0462 123.265C37.8157 122.674 37.8157 122.674 38.825 120.815C40.2729 121.973 40.2729 121.973 41.75 123.155C41.1328 125.079 40.5407 125.518 38.7564 126.558C38.027 126.905 37.2941 127.246 36.5581 127.579C33.7044 128.886 33.7044 128.886 31.076 130.589C30.05 131.345 30.05 131.345 28.1853 131.418C24.8323 130.429 21.9673 128.531 19.9656 125.607C18.9432 123.431 18.7615 121.431 18.935 119.06Z" fill="#04ACE8"/>
<path d="M103.175 76.355C109.739 76.355 116.302 76.355 123.065 76.355C123.065 78.2855 123.065 80.216 123.065 82.205C116.501 82.205 109.938 82.205 103.175 82.205C103.175 80.2745 103.175 78.344 103.175 76.355Z" fill="#E4E5E6"/>
<path d="M54.035 132.515C54.5417 132.961 55.0485 133.408 55.5706 133.868C56.9191 135.025 57.7258 135.506 59.4508 136.132C61.055 137.195 61.055 137.195 61.4954 138.386C61.8017 139.951 61.9937 141.495 62.1519 143.082C62.2197 143.611 62.2876 144.14 62.3575 144.685C62.7847 148.242 62.8885 151.75 62.81 155.33C60.2203 154.467 59.9351 153.048 58.715 150.65C58.715 150.264 58.715 149.878 58.715 149.48C58.1901 149.227 58.1901 149.227 57.6547 148.968C56.375 148.31 56.375 148.31 54.62 147.14C54.367 145.665 54.367 145.665 54.3206 143.827C54.2999 143.17 54.2791 142.514 54.2578 141.838C54.2446 141.151 54.2314 140.463 54.2178 139.754C54.1978 139.062 54.1778 138.37 54.1572 137.657C54.1089 135.943 54.0684 134.229 54.035 132.515Z" fill="#FCC926"/>
<path d="M124.82 44.1801C127.909 44.1801 130.998 44.1801 134.18 44.1801C134.18 47.848 134.18 51.516 134.18 55.295C131.091 55.295 128.002 55.295 124.82 55.295C124.82 51.6271 124.82 47.9592 124.82 44.1801Z" fill="#D2D3D5"/>
<path d="M24.2 65.24C29.0262 65.24 33.8525 65.24 38.825 65.24C38.825 66.7844 38.825 68.3288 38.825 69.92C37.8597 69.92 36.8945 69.92 35.9 69.92C35.9 70.8852 35.9 71.8505 35.9 72.845C32.039 72.845 28.178 72.845 24.2 72.845C24.2 70.3353 24.2 67.8257 24.2 65.24Z" fill="#BCBEC0"/>
<path d="M126.575 110.651C127.172 110.608 127.172 110.608 127.782 110.564C128.915 110.87 128.915 110.87 129.927 112.122C130.767 114.015 130.886 115.316 130.853 117.378C130.851 117.983 130.848 118.588 130.846 119.211C130.67 120.815 130.67 120.815 129.5 122.57C129.114 122.57 128.728 122.57 128.33 122.57C128.33 120.253 128.33 117.937 128.33 115.55C123.211 116.29 123.211 116.29 119.555 119.645C119.748 120.031 119.941 120.417 120.14 120.815C119.947 121.201 119.754 121.587 119.555 121.985C118.722 122.257 118.722 122.257 117.873 122.533C116.052 122.997 116.052 122.997 115.094 124.142C114.696 124.522 114.696 124.522 114.29 124.91C113.01 124.727 113.01 124.727 111.95 124.325C113.741 119.086 118.142 114.752 122.48 111.455C123.974 110.957 125.03 110.727 126.575 110.651Z" fill="#0DB0E6"/>
<path d="M91.1322 120.34C93.9018 121.357 95.8875 122.166 97.325 124.91C97.3786 127.055 96.7528 127.819 95.4237 129.517C93.815 130.76 93.815 130.76 92.4462 130.694C90.5292 130.055 89.3414 129.078 87.7822 127.798C84.8073 125.537 83.4154 125.176 79.775 125.495C78.4747 124.629 78.4747 124.629 77.435 123.74C78.3241 123.58 78.3241 123.58 79.2311 123.418C80.0218 123.269 80.8125 123.121 81.6031 122.972C81.9922 122.903 82.3813 122.834 82.7822 122.763C84.7388 122.389 86.3107 121.933 88.0838 121.009C89.72 120.23 89.72 120.23 91.1322 120.34Z" fill="#F6E90E"/>
<path d="M35.9 82.79C38.2166 82.9831 40.5332 83.1761 42.92 83.375C42.92 87.4291 42.92 91.4831 42.92 95.66C36.4171 94.5632 36.4171 94.5632 33.56 93.32C33.788 89.4829 34.3914 86.3321 35.9 82.79Z" fill="#F9EE10"/>
<path d="M85.04 32.48C89.2871 32.48 93.5342 32.48 97.91 32.48C97.91 34.9896 97.91 37.4993 97.91 40.085C93.6629 40.085 89.4158 40.085 85.04 40.085C85.04 37.5753 85.04 35.0657 85.04 32.48Z" fill="#D1D2D4"/>
<path d="M103.175 54.125C107.036 54.125 110.897 54.125 114.875 54.125C114.875 55.6694 114.875 57.2138 114.875 58.805C111.207 58.805 107.539 58.805 103.76 58.805C103.76 64.5965 103.76 70.388 103.76 76.355C103.567 76.355 103.374 76.355 103.175 76.355C103.175 70.5635 103.175 64.772 103.175 58.805C91.0128 58.805 78.8507 58.805 66.32 58.805C66.32 62.473 66.32 66.1409 66.32 69.92C66.1269 69.92 65.9339 69.92 65.735 69.92C65.735 66.059 65.735 62.198 65.735 58.22C78.0902 58.22 90.4454 58.22 103.175 58.22C103.175 56.8687 103.175 55.5173 103.175 54.125Z" fill="#949497"/>
<path d="M34.73 129.005C37.4327 129.005 40.1354 129.005 42.92 129.005C41.1825 133.252 39.4451 137.499 37.655 141.875C35.9 141.875 35.9 141.875 34.9402 141.123C32.3998 138.318 32.3998 138.318 32.3534 135.769C33.0432 133.456 33.8268 131.243 34.73 129.005Z" fill="#F5ACAB"/>
<path d="M134.18 55.295C136.11 55.295 138.041 55.295 140.03 55.295C140.03 59.9282 140.03 64.5614 140.03 69.335C138.099 69.335 136.169 69.335 134.18 69.335C134.18 64.7018 134.18 60.0686 134.18 55.295Z" fill="#D2D3D5"/>
<path d="M118.092 121.693C119.555 121.985 119.555 121.985 120.652 123.155C121.523 125.478 121.517 127.238 120.725 129.59C119.484 131.056 118.619 131.841 116.669 132.053C116.07 132.083 116.07 132.083 115.46 132.113C113.881 132.221 113.311 132.326 112.169 133.456C111.259 134.715 111.259 134.715 110.195 136.61C109.809 136.417 109.423 136.224 109.025 136.025C109.025 135.253 109.025 134.481 109.025 133.685C109.508 133.214 109.99 132.744 110.487 132.259C112.104 130.909 112.104 130.909 112.133 129.115C112.072 128.692 112.012 128.27 111.95 127.835C111.564 127.642 111.178 127.449 110.78 127.25C111.182 125.824 111.182 125.824 111.95 124.325C113.376 123.959 113.376 123.959 114.875 123.74C115.165 123.438 115.454 123.137 115.752 122.826C116.63 121.985 116.63 121.985 118.092 121.693Z" fill="#F5CB2A"/>
<path d="M16.9264 126.738C20.655 126.572 22.9506 127.575 25.7425 129.992C26.1373 130.372 26.1373 130.372 26.54 130.76C26.1815 132.493 25.8066 133.323 24.785 134.855C20.4102 134.569 16.1918 134.075 11.915 133.1C14.2164 127.662 14.2164 127.662 16.9264 126.738Z" fill="#E93036"/>
<path d="M133.595 69.92C133.788 69.92 133.981 69.92 134.18 69.92C134.18 73.0088 134.18 76.0976 134.18 79.28C132.829 79.28 131.477 79.28 130.085 79.28C130.085 83.7202 130.085 88.1603 130.085 92.735C129.313 92.735 128.541 92.735 127.745 92.735C127.745 98.7196 127.745 104.704 127.745 110.87C127.552 110.87 127.359 110.87 127.16 110.87C127.16 104.692 127.16 98.5148 127.16 92.15C121.755 92.15 116.349 92.15 110.78 92.15C110.78 91.1848 110.78 90.2195 110.78 89.225C116.378 89.225 121.977 89.225 127.745 89.225C127.745 90.1903 127.745 91.1555 127.745 92.15C128.324 92.15 128.903 92.15 129.5 92.15C129.5 87.7099 129.5 83.2697 129.5 78.695C130.851 78.695 132.203 78.695 133.595 78.695C133.595 75.7993 133.595 72.9035 133.595 69.92Z" fill="#848687"/>
<path d="M46.43 125.495C47.3847 136.52 47.3847 136.52 45.2508 139.336C43.6912 140.249 42.3193 140.807 40.58 141.29C39.936 141.505 39.292 141.72 38.6285 141.941C37.857 142.198 37.857 142.198 37.07 142.46C37.7944 140.58 38.5282 138.705 39.2637 136.829C39.4673 136.301 39.6709 135.772 39.8807 135.227C43.7169 125.495 43.7169 125.495 46.43 125.495Z" fill="#C9C2DE"/>
<path d="M110.78 96.245C112.517 96.245 114.255 96.245 116.045 96.245C116.045 100.878 116.045 105.511 116.045 110.285C114.308 110.285 112.57 110.285 110.78 110.285C110.78 105.652 110.78 101.019 110.78 96.245Z" fill="#333031"/>
<path d="M100.25 145.97C100.443 146.549 100.636 147.128 100.835 147.725C99.9222 149.259 98.9883 150.67 97.9465 152.112C97.6512 152.529 97.3558 152.945 97.0515 153.374C96.4525 154.217 95.851 155.058 95.2472 155.898C94.4994 156.946 93.7712 158.003 93.0517 159.071C92.6641 159.634 92.2765 160.197 91.8771 160.778C91.3738 161.516 91.3738 161.516 90.8603 162.27C89.4802 163.783 88.0737 164.463 86.21 165.275C86.0819 164.291 85.992 163.303 85.9175 162.313C85.8632 161.764 85.8089 161.214 85.7529 160.648C86.4802 157.771 88.644 156.552 90.89 154.745C91.7322 153.98 92.5671 153.207 93.3945 152.426C93.8017 152.043 94.2089 151.66 94.6285 151.266C95.0357 150.882 95.4429 150.497 95.8625 150.102C96.2878 149.701 96.7131 149.301 97.1513 148.889C98.1849 147.917 99.2177 146.944 100.25 145.97Z" fill="#EF8632"/>
<path d="M117.215 55.88C118.952 55.88 120.69 55.88 122.48 55.88C122.48 60.3202 122.48 64.7603 122.48 69.335C120.743 69.335 119.005 69.335 117.215 69.335C117.215 64.8949 117.215 60.4547 117.215 55.88Z" fill="#D2D3D5"/>
<path d="M63.395 125.495C60.0925 128.889 60.0925 128.889 58.13 130.175C57.7439 130.175 57.3578 130.175 56.96 130.175C59.5142 132.851 62.3179 135.049 65.2551 137.288C68.0159 139.417 68.0159 139.417 68.66 140.705C65.7721 139.818 63.1066 138.658 60.3969 137.341C59.9859 137.153 59.5749 136.964 59.1514 136.77C56.3405 135.399 54.882 134.152 53.45 131.345C53.7425 129.846 53.7425 129.846 54.62 128.42C54.8975 127.877 55.175 127.334 55.4609 126.775C57.832 124.751 60.4023 125.263 63.395 125.495Z" fill="#F4F1F2"/>
<path d="M56.375 158.255C55.5399 160.472 54.525 162.509 53.3768 164.58C53.0616 165.151 52.7464 165.722 52.4217 166.31C52.1818 166.741 51.942 167.171 51.695 167.615C47.8193 167.688 47.8193 167.688 45.845 167.03C45.9281 166.104 46.0139 165.177 46.1009 164.251C46.1484 163.735 46.1959 163.22 46.2449 162.688C46.408 161.359 46.6569 160.128 47.015 158.84C50.1442 158.494 53.2211 158.172 56.375 158.255Z" fill="#F9EB0B"/>
<path d="M89.135 99.755C91.3748 100.679 92.8133 102.107 94.5097 103.813C95.0247 104.325 95.5398 104.838 96.0704 105.365C97.325 106.775 97.325 106.775 97.91 108.53C96.3656 108.53 94.8212 108.53 93.23 108.53C93.0369 108.916 92.8439 109.302 92.645 109.7C90.3284 109.507 88.0118 109.314 85.625 109.115C86.113 106.675 86.6708 104.999 87.709 102.79C87.9752 102.219 88.2414 101.648 88.5157 101.06C88.7201 100.629 88.9244 100.199 89.135 99.755Z" fill="#EA3337"/>
<path d="M85.04 27.215C89.4801 27.215 93.9203 27.215 98.495 27.215C98.495 28.7594 98.495 30.3038 98.495 31.895C94.0548 31.895 89.6147 31.895 85.04 31.895C85.04 30.3506 85.04 28.8062 85.04 27.215Z" fill="#A8ABAE"/>
<path d="M78.605 16.1C87.4853 16.1 96.3656 16.1 105.515 16.1C105.515 16.8722 105.515 17.6444 105.515 18.44C96.6347 18.44 87.7544 18.44 78.605 18.44C78.605 17.6678 78.605 16.8956 78.605 16.1Z" fill="#848688"/>
<path d="M24.2 72.845C28.061 72.845 31.922 72.845 35.9 72.845C35.9 74.5824 35.9 76.3199 35.9 78.11C32.039 78.11 28.178 78.11 24.2 78.11C24.2 76.3725 24.2 74.6351 24.2 72.845Z" fill="#96989B"/>
<path d="M39.41 155.915C40.1218 156.289 40.8337 156.663 41.5672 157.048C43.3784 157.959 44.9842 158.586 47.015 158.84C46.9478 159.767 46.8732 160.693 46.7956 161.619C46.7549 162.135 46.7142 162.65 46.6722 163.182C46.43 164.69 46.43 164.69 45.26 167.03C43.3295 166.644 41.399 166.258 39.41 165.86C39.41 162.578 39.41 159.296 39.41 155.915Z" fill="#EF8432"/>
<path d="M70.415 124.91C71.0823 125.934 71.0823 125.934 71.7312 127.25C72.4475 128.539 72.4475 128.539 73.34 129.59C75.3875 130.175 75.3875 130.175 77.435 129.59C79.1362 128.504 79.1362 128.504 80.36 127.25C81.1322 127.636 81.9044 128.022 82.7 128.42C82.115 130.175 82.115 130.175 81.2101 130.865C79.1356 131.559 77.1083 131.468 74.9487 131.418C74.5129 131.413 74.077 131.408 73.6279 131.402C72.5569 131.388 71.4859 131.367 70.415 131.345C70.415 131.538 70.415 131.731 70.415 131.93C69.8358 132.22 69.8358 132.22 69.245 132.515C67.851 131.932 67.851 131.932 66.2469 131.089C65.7145 130.812 65.1821 130.536 64.6335 130.25C64.2248 130.033 63.8161 129.815 63.395 129.59C63.395 129.204 63.395 128.818 63.395 128.42C64.485 127.538 64.485 127.538 65.9178 126.592C66.3861 126.277 66.8544 125.961 67.3369 125.637C68.66 124.91 68.66 124.91 70.415 124.91Z" fill="#F7F0CE"/>
<path d="M16.595 106.19C16.8725 106.709 17.15 107.228 17.4359 107.762C19.1774 110.593 22.4016 111.468 25.37 112.625C17.6344 116.537 17.6344 116.537 14.7669 115.696C14.2119 115.455 13.6568 115.214 13.085 114.965C13.4711 114.772 13.8572 114.579 14.255 114.38C13.9654 113.747 13.9654 113.747 13.67 113.1C13.0576 111.378 12.8075 110.334 13.085 108.53C14.9823 106.19 14.9823 106.19 16.595 106.19Z" fill="#EB893B"/>
<path d="M35.9 82.2051C45.7455 82.2051 55.5911 82.2051 65.735 82.2051C65.735 83.3634 65.735 84.5217 65.735 85.7151C64.9785 85.6268 64.2221 85.5385 63.4427 85.4476C60.6409 85.1366 57.8389 84.9213 55.0267 84.7302C54.0121 84.6577 52.9975 84.5849 51.9829 84.5119C50.404 84.3991 48.8251 84.2879 47.2458 84.181C45.7075 84.0763 44.1698 83.965 42.632 83.8527C41.9218 83.8069 41.9218 83.8069 41.1973 83.7602C38.9919 83.5939 37.7749 83.455 35.9 82.2051Z" fill="#F9F5F0"/>
<path d="M37.655 118.475C38.0788 118.75 38.5026 119.025 38.9392 119.309C43.1541 122.025 43.1541 122.025 47.6 124.325C47.4069 126.642 47.2139 128.958 47.015 131.345C46.8219 131.345 46.6289 131.345 46.43 131.345C46.2369 129.608 46.0439 127.87 45.845 126.08C45.5192 126.563 45.1935 127.045 44.8578 127.542C43.5945 128.839 42.9081 129.006 41.0736 129.24C39.1218 129.26 37.2513 129.256 35.315 129.005C34.9289 128.619 34.5428 128.233 34.145 127.835C34.645 127.595 35.1449 127.355 35.66 127.108C36.3063 126.793 36.9526 126.478 37.6184 126.153C38.5856 125.685 38.5856 125.685 39.5722 125.207C41.22 124.491 41.22 124.491 41.75 123.155C41.4001 122.998 41.0502 122.841 40.6897 122.68C39.3994 121.979 38.57 121.374 37.655 120.23C37.655 119.651 37.655 119.072 37.655 118.475Z" fill="#EA873F"/>
<path d="M4.89499 88.64C6.80931 89.5972 7.17975 91.3036 7.92283 93.24C9.44236 99.0229 8.37581 105.569 7.81999 111.455C3.47243 104.934 4.71872 96.0926 4.89499 88.64Z" fill="#05ACE7"/>
<path d="M27.125 92.15C29.2485 92.15 31.3721 92.15 33.56 92.15C32.7878 95.4319 32.0156 98.7137 31.22 102.095C30.4478 101.709 29.6756 101.323 28.88 100.925C27.7146 100.522 26.5452 100.129 25.37 99.755C25.5514 98.8163 25.7345 97.8779 25.9184 96.9397C26.0202 96.4171 26.122 95.8945 26.2269 95.3561C26.54 93.905 26.54 93.905 27.125 92.15Z" fill="#A03C97"/>
<path d="M79.775 178.73C80.1611 178.923 80.5472 179.116 80.945 179.315C76.3941 182.745 71.6881 185.866 66.8867 188.931C65.0763 190.089 63.3176 191.304 61.5669 192.551C59.4343 193.997 57.7709 194.416 55.205 194.525C57.2791 190.871 57.2791 190.871 58.715 189.845C59.6923 189.718 59.6923 189.718 60.6894 189.589C63.1816 189.202 63.8268 188.525 65.735 186.92C67.2516 186.051 68.7946 185.24 70.3396 184.422C73.0446 182.926 75.6271 181.249 78.2234 179.573C78.7354 179.295 79.2474 179.017 79.775 178.73Z" fill="#414093"/>
<path d="M103.76 54.125C107.428 54.125 111.096 54.125 114.875 54.125C114.875 55.4764 114.875 56.8277 114.875 58.22C111.207 58.22 107.539 58.22 103.76 58.22C103.76 56.8687 103.76 55.5173 103.76 54.125Z" fill="#CED0D1"/>
<path d="M128.33 115.55C128.995 121.005 127.51 124.101 124.235 128.42C123.65 127.25 123.65 127.25 124.198 125.349C124.777 123.307 124.923 121.747 124.82 119.645C122.744 119.598 120.968 119.678 118.97 120.23C119.514 119.556 120.063 118.886 120.615 118.219C120.921 117.846 121.226 117.473 121.541 117.088C123.475 115.125 125.743 115.501 128.33 115.55Z" fill="#F8CB27"/>
<path d="M117.215 55.295C119.725 55.295 122.234 55.295 124.82 55.295C124.82 60.1213 124.82 64.9475 124.82 69.92C124.241 69.92 123.662 69.92 123.065 69.92C123.065 72.0436 123.065 74.1671 123.065 76.355C122.872 76.355 122.679 76.355 122.48 76.355C122.48 74.2315 122.48 72.1079 122.48 69.92C120.743 69.92 119.005 69.92 117.215 69.92C117.215 69.727 117.215 69.5339 117.215 69.335C118.952 69.335 120.69 69.335 122.48 69.335C122.48 64.8949 122.48 60.4547 122.48 55.88C120.743 55.88 119.005 55.88 117.215 55.88C117.215 55.687 117.215 55.4939 117.215 55.295Z" fill="#AFB0B3"/>
<path d="M68.075 86.3C72.7082 86.3 77.3414 86.3 82.115 86.3C82.115 88.2305 82.115 90.161 82.115 92.15C79.6489 91.7781 77.665 90.9262 75.424 89.8466C73.0053 88.6844 70.6378 87.6852 68.075 86.885C68.075 86.692 68.075 86.4989 68.075 86.3Z" fill="#F9F6F9"/>
<path d="M82.115 76.355C83.6594 76.355 85.2038 76.355 86.795 76.355C86.795 79.4438 86.795 82.5326 86.795 85.715C85.2506 85.715 83.7062 85.715 82.115 85.715C82.115 82.6262 82.115 79.5374 82.115 76.355Z" fill="#AAADB0"/>
<path d="M32.39 168.785C33.4578 169.183 33.4578 169.183 34.5472 169.589C40.8277 171.644 47.233 171.882 53.7852 172.095C54.3216 172.114 54.858 172.132 55.4106 172.151C55.8922 172.165 56.3738 172.179 56.87 172.193C58.13 172.295 58.13 172.295 59.885 172.88C59.6919 173.459 59.4989 174.038 59.3 174.635C57.012 174.609 54.7248 174.568 52.4374 174.514C51.2859 174.489 50.1342 174.476 48.9825 174.464C43.6872 174.329 37.4211 174.042 33.4137 170.101C33.0759 169.667 32.7381 169.233 32.39 168.785Z" fill="#F6A28A"/>
<path d="M21.275 115.55C22.912 115.776 23.51 116.019 24.6387 117.268C25.37 118.475 25.37 118.475 25.37 119.645C27.3005 119.838 29.231 120.031 31.22 120.23C31.6061 119.458 31.9922 118.686 32.39 117.89C33.5234 118.329 33.5234 118.329 34.73 119.06C35.1687 120.303 35.1687 120.303 35.315 121.4C32.1196 122.465 27.9397 122.704 24.737 121.544C23.0539 120.457 21.6518 119.059 20.69 117.305C20.883 116.726 21.0761 116.147 21.275 115.55Z" fill="#E2E4E5"/>
<path d="M69.83 123.74C69.83 124.126 69.83 124.512 69.83 124.91C68.7194 125.792 68.7194 125.792 67.2706 126.738C66.7955 127.053 66.3205 127.369 65.831 127.693C64.565 128.42 64.565 128.42 63.395 128.42C63.2019 128.999 63.0089 129.578 62.81 130.175C61.4572 131.491 61.4572 131.491 59.885 132.515C58.5687 132.478 58.5687 132.478 57.545 131.93C57.3519 131.351 57.1589 130.772 56.96 130.175C58.093 129.321 59.2265 128.468 60.3603 127.616C60.8405 127.254 60.8405 127.254 61.3304 126.884C64.4181 124.564 65.9023 123.592 69.83 123.74Z" fill="#E6373B"/>
<path d="M62.225 147.14C64.3131 149.827 65.9422 152.751 67.6363 155.696C67.9681 156.261 68.2999 156.827 68.6417 157.41C68.9524 157.949 69.2631 158.489 69.5832 159.046C69.8692 159.539 70.1552 160.033 70.4499 160.542C70.6314 160.945 70.813 161.349 71 161.765C70.807 162.151 70.6139 162.537 70.415 162.935C63.5312 157.967 63.5312 157.967 62.6683 153.989C62.3402 151.708 62.2366 149.443 62.225 147.14Z" fill="#5EBBC6"/>
<path d="M66.32 24.875C66.5131 24.875 66.7061 24.875 66.905 24.875C66.905 27.1916 66.905 29.5082 66.905 31.895C71.9243 31.895 76.9436 31.895 82.115 31.895C82.115 32.088 82.115 32.2811 82.115 32.48C77.0957 32.48 72.0764 32.48 66.905 32.48C66.905 35.9549 66.905 39.4298 66.905 43.01C66.712 43.01 66.5189 43.01 66.32 43.01C66.32 39.5351 66.32 36.0602 66.32 32.48C60.1424 32.48 53.9648 32.48 47.6 32.48C47.6 32.2869 47.6 32.0939 47.6 31.895C53.7776 31.895 59.9552 31.895 66.32 31.895C66.32 29.5784 66.32 27.2618 66.32 24.875Z" fill="#959698"/>
<path d="M49.355 22.535C54.9534 22.535 60.5519 22.535 66.32 22.535C66.32 23.1142 66.32 23.6933 66.32 24.29C60.7215 24.29 55.1231 24.29 49.355 24.29C49.355 23.7109 49.355 23.1317 49.355 22.535Z" fill="#BDBFC1"/>
<path d="M69.83 15.515C72.5327 15.515 75.2354 15.515 78.02 15.515C78.02 16.6733 78.02 17.8316 78.02 19.025C75.3173 19.025 72.6146 19.025 69.83 19.025C69.83 17.8667 69.83 16.7084 69.83 15.515Z" fill="#B9BBBD"/>
<path d="M52.28 187.505C51.8939 187.698 51.5078 187.891 51.11 188.09C49.9217 187.676 49.9217 187.676 48.4775 187.03C42.8596 184.702 37.254 184.325 31.22 183.995C31.22 183.802 31.22 183.609 31.22 183.41C39.2389 181.722 45.3624 183.393 52.28 187.505Z" fill="#353B3F"/>
<path d="M79.775 178.73C80.1611 178.923 80.5472 179.116 80.945 179.315C76.2066 182.864 71.3248 186.104 66.32 189.26C65.9339 188.488 65.5478 187.716 65.15 186.92C65.5748 186.761 65.9996 186.603 66.4372 186.439C68.0321 185.768 69.4126 184.995 70.8789 184.08C71.6486 183.606 71.6486 183.606 72.4339 183.123C73.5091 182.456 74.5831 181.787 75.656 181.117C76.1669 180.803 76.6778 180.49 77.2042 180.167C77.6696 179.878 78.135 179.588 78.6145 179.289C78.9975 179.105 79.3804 178.92 79.775 178.73Z" fill="#504C8A"/>
<path d="M85.7712 129.773C86.1091 129.906 86.4469 130.038 86.795 130.175C86.795 131.93 86.795 131.93 86.0432 132.762C83.9901 134.296 83.0875 134.861 80.4331 134.818C79.8298 134.637 79.2266 134.456 78.605 134.27C78.4119 133.884 78.2189 133.498 78.02 133.1C78.6474 132.847 79.2748 132.593 79.9212 132.332C81.2919 131.756 82.219 131.262 83.3947 130.321C84.455 129.59 84.455 129.59 85.7712 129.773Z" fill="#BABEDC"/>
<path d="M68.66 130.175C69.2391 130.368 69.8183 130.561 70.415 130.76C71.1952 130.844 71.9782 130.904 72.7618 130.945C73.4264 130.982 73.4264 130.982 74.1044 131.019C74.7938 131.054 74.7938 131.054 75.4972 131.089C76.1968 131.127 76.1968 131.127 76.9105 131.166C78.0602 131.228 79.2101 131.287 80.36 131.345C80.1669 131.924 79.9739 132.503 79.775 133.1C78.0502 133.675 76.893 133.764 75.095 133.758C74.3348 133.76 74.3348 133.76 73.5594 133.763C72.17 133.685 72.17 133.685 70.415 133.1C69.4278 131.601 69.4278 131.601 68.66 130.175Z" fill="#4E5650"/>
<path d="M51.8412 156.354C52.4717 156.375 53.1021 156.396 53.7516 156.418C54.471 156.458 54.471 156.458 55.205 156.5C55.398 157.079 55.5911 157.658 55.79 158.255C53.5452 158.784 51.4756 158.902 49.1722 158.877C48.547 158.871 47.9219 158.866 47.2778 158.861C46.8049 158.854 46.3321 158.847 45.845 158.84C47.7318 156.514 48.8855 156.225 51.8412 156.354Z" fill="#3E3531"/>
<path d="M17.18 111.455C18.2164 111.522 19.2522 111.596 20.2878 111.674C21.1531 111.735 21.1531 111.735 22.0359 111.798C23.615 112.04 23.615 112.04 25.37 113.21C24.4439 113.491 23.5176 113.771 22.5912 114.051C21.8175 114.285 21.8175 114.285 21.0282 114.524C19.7507 114.897 18.4738 115.239 17.18 115.55C17.18 114.199 17.18 112.847 17.18 111.455Z" fill="#C5BED7"/>
<path d="M32.39 168.785C33.4578 169.183 33.4578 169.183 34.5472 169.589C38.0396 170.767 41.6169 171.231 45.26 171.71C45.26 171.903 45.26 172.096 45.26 172.295C44.8256 172.379 44.3913 172.464 43.9437 172.551C42.4035 172.831 42.4035 172.831 41.229 173.255C38.8568 173.659 36.759 172.261 34.73 171.125C33.2309 169.809 33.2309 169.809 32.39 168.785Z" fill="#F59B84"/>
<path d="M80.36 127.25C81.1322 127.636 81.9044 128.022 82.7 128.42C82.115 130.175 82.115 130.175 81.0821 130.865C79.6245 131.4 78.5429 131.464 76.9962 131.418C76.5287 131.408 76.0611 131.397 75.5794 131.386C75.2265 131.373 74.8736 131.359 74.51 131.345C75.4509 129.463 77.3098 129.212 79.19 128.42C79.5761 128.034 79.9622 127.648 80.36 127.25Z" fill="#F2EECC"/>
<path d="M80.945 126.08C82.9022 126.35 84.1605 127.112 85.625 128.42C85.625 128.806 85.625 129.192 85.625 129.59C83.8923 130.861 82.4035 131.834 80.36 132.515C80.1669 131.936 79.9739 131.357 79.775 130.76C80.5472 130.374 81.3194 129.988 82.115 129.59C81.6608 127.791 81.6608 127.791 80.36 126.665C80.553 126.472 80.7461 126.279 80.945 126.08Z" fill="#424244"/>
<path d="M119.555 131.93C119.941 132.123 120.327 132.316 120.725 132.515C119.181 134.638 117.636 136.762 116.045 138.95C115.852 138.371 115.659 137.792 115.46 137.195C114.302 137.581 113.143 137.967 111.95 138.365C114.272 135.897 116.81 133.912 119.555 131.93Z" fill="#D2C647"/>
<path d="M65.15 127.25C67.8118 128.137 68.9528 130.274 70.415 132.515C67.9379 131.748 65.6917 130.793 63.395 129.59C63.395 129.204 63.395 128.818 63.395 128.42C63.9741 128.034 64.5533 127.648 65.15 127.25Z" fill="#EEE517"/>
<path d="M32.39 117.89C33.5234 118.329 33.5234 118.329 34.73 119.06C34.923 119.832 35.1161 120.604 35.315 121.4C32.8053 121.4 30.2957 121.4 27.71 121.4C29.465 120.23 29.465 120.23 31.22 120.23C31.6061 119.458 31.9922 118.686 32.39 117.89Z" fill="#F6F6F6"/>
<path d="M124.82 76.355C126.364 76.355 127.909 76.355 129.5 76.355C129.5 77.3202 129.5 78.2855 129.5 79.28C127.956 79.28 126.411 79.28 124.82 79.28C124.82 78.3147 124.82 77.3495 124.82 76.355Z" fill="#AEB0B3"/>
<path d="M59.885 172.88C59.6919 173.459 59.4989 174.038 59.3 174.635C53.7015 174.442 48.1031 174.249 42.335 174.05C42.335 173.857 42.335 173.664 42.335 173.465C42.9903 173.443 42.9903 173.443 43.6589 173.421C45.6308 173.353 47.6026 173.281 49.5743 173.209C50.2621 173.186 50.9498 173.163 51.6584 173.139C52.3145 173.115 52.9705 173.09 53.6465 173.065C54.2531 173.044 54.8596 173.022 55.4846 173C59.3108 172.689 59.3108 172.689 59.885 172.88Z" fill="#E97169"/>
<path d="M72.755 127.25C74.1078 127.067 74.1078 127.067 75.68 127.25C76.7403 128.713 76.7403 128.713 77.435 130.175C75.4606 130.285 75.4606 130.285 73.34 130.175C72.9539 129.596 72.5678 129.017 72.17 128.42C72.363 128.034 72.5561 127.648 72.755 127.25Z" fill="#1A9BCF"/>
<path d="M123.065 69.92C123.644 69.92 124.223 69.92 124.82 69.92C124.82 72.0436 124.82 74.1671 124.82 76.355C124.241 76.355 123.662 76.355 123.065 76.355C123.065 74.2315 123.065 72.1079 123.065 69.92Z" fill="#FBFBFB"/>
<path d="M31.805 151.82C33.6697 151.601 33.6697 151.601 35.9 151.82C37.1521 152.88 37.8831 153.96 38.825 155.33C37.6667 155.33 36.5084 155.33 35.315 155.33C35.1702 154.86 35.0254 154.389 34.8762 153.904C34.3074 152.305 34.3074 152.305 32.9019 151.93C32.5399 151.894 32.1779 151.857 31.805 151.82Z" fill="#4B303F"/>
<path d="M30.05 117.89C30.4361 118.662 30.8222 119.434 31.22 120.23C27.678 120.344 27.678 120.344 26.54 120.23C26.1539 119.844 25.7678 119.458 25.37 119.06C27.2583 117.801 27.8761 117.773 30.05 117.89Z" fill="#1997CD"/>
<path d="M35.9 69.92C36.8652 69.92 37.8305 69.92 38.825 69.92C38.825 70.8853 38.825 71.8505 38.825 72.845C37.8597 72.845 36.8945 72.845 35.9 72.845C35.9 71.8798 35.9 70.9145 35.9 69.92Z" fill="#78797C"/>
<path d="M79.775 178.73C80.1611 178.923 80.5472 179.116 80.945 179.315C80.1083 180.003 79.2663 180.684 78.4222 181.362C77.9539 181.743 77.4856 182.123 77.0031 182.514C75.68 183.41 75.68 183.41 73.925 183.41C73.925 183.024 73.925 182.638 73.925 182.24C75.1635 181.337 75.1635 181.337 76.7769 180.375C77.3062 180.053 77.8356 179.731 78.381 179.4C79.0711 179.068 79.0711 179.068 79.775 178.73Z" fill="#674D7E"/>
<path d="M112.535 131.93C111.841 133.904 111.204 135.234 109.61 136.61C109.417 135.645 109.224 134.679 109.025 133.685C111.219 131.93 111.219 131.93 112.535 131.93Z" fill="#ECC932"/>
<path d="M105.515 140.12C106.1 141.875 106.1 141.875 105.807 143.374C104.93 144.8 104.93 144.8 102.809 145.568C102.158 145.701 101.506 145.833 100.835 145.97C101.075 145.695 101.315 145.419 101.562 145.136C101.877 144.772 102.192 144.407 102.517 144.032C102.829 143.672 103.141 143.313 103.463 142.942C104.441 141.796 104.441 141.796 105.515 140.12Z" fill="#E0B62F"/>
<path d="M45.845 184.58C48.2159 185.297 50.1995 186.159 52.28 187.505C51.11 188.09 51.11 188.09 49.716 187.635C49.1867 187.411 48.6573 187.187 48.1119 186.957C47.3133 186.623 47.3133 186.623 46.4985 186.282C46.0898 186.107 45.6811 185.931 45.26 185.75C45.453 185.364 45.6461 184.978 45.845 184.58Z" fill="#394B54"/>
<path d="M122.48 116.135C122.866 116.328 123.252 116.521 123.65 116.72C123.264 117.106 122.878 117.492 122.48 117.89C123.252 118.276 124.024 118.662 124.82 119.06C122.889 119.446 120.959 119.832 118.97 120.23C120.128 118.879 121.287 117.527 122.48 116.135Z" fill="#C6C552"/>
<path d="M124.82 123.155C125.013 123.541 125.206 123.927 125.405 124.325C125.791 124.518 126.177 124.711 126.575 124.91C125.417 126.647 125.417 126.647 124.235 128.42C123.299 126.548 124.216 125.072 124.82 123.155Z" fill="#CBC54E"/>
</svg>
